<svg t="1763865739283" class="icon" viewBox="0 0 1024 1024" version="1.1" xmlns="http://www.w3.org/2000/svg" p-id="13770" width="200" height="200"><path d="M511.952 64l6.784 0.064C727.488 67.888 895.6 237.824 896 447.152 896 636.272 645.808 960 512 960S128 636.272 128 447.088C128.416 235.584 300.112 64.272 511.952 64z m-6.048 80.992c-164.336 3.488-296.528 137.392-296.848 302.16 0 71.648 47.2 175.12 120.704 272.32l10.336 13.44c67.536 85.808 142.176 146.16 171.904 146.16 30.4 0 107.712-63.056 176.384-151.92 76.832-99.408 126.56-206.464 126.56-279.92-0.32-164.848-132.512-298.752-296.848-302.24L512 144.928l-6.096 0.064z" fill="#FFBD27" p-id="13771"></path><path d="M352 448.688A160 160 0 1 1 512 608c-88.048-0.128-159.488-71.264-160-159.312z" fill="#FFBD27" p-id="13772"></path></svg>