<svg t="1761621775287" class="icon" viewBox="0 0 1024 1024" version="1.1" xmlns="http://www.w3.org/2000/svg" p-id="41572" width="200" height="200"><path d="M951.466667 533.333333c6.4-4.266667 8.533333-12.8 8.533333-21.333333s-4.266667-14.933333-8.533333-21.333333l-70.4-61.866667c-8.533333-6.4-10.666667-19.2-8.533334-29.866667l29.866667-89.6c2.133333-8.533333 2.133333-14.933333-2.133333-23.466666-4.266667-6.4-10.666667-10.666667-19.2-12.8L789.333333 256c-10.666667-2.133333-19.2-10.666667-21.333333-21.333333l-19.2-91.733334c-2.133333-8.533333-6.4-14.933333-12.8-19.2-6.4-4.266667-14.933333-4.266667-23.466667-2.133333l-89.6 29.866667c-10.666667 4.266667-21.333333 0-29.866666-8.533334L533.333333 72.533333c-6.4-4.266667-12.8-8.533333-21.333333-8.533333s-14.933333 4.266667-21.333333 8.533333l-61.866667 70.4c-6.4 8.533333-19.2 10.666667-29.866667 8.533334l-89.6-27.733334c-8.533333-2.133333-14.933333-2.133333-23.466666 2.133334-4.266667 2.133333-8.533333 8.533333-10.666667 17.066666L256 234.666667c-2.133333 10.666667-10.666667 19.2-21.333333 21.333333l-91.733334 19.2c-8.533333 2.133333-14.933333 6.4-19.2 12.8-4.266667 6.4-4.266667 14.933333-2.133333 23.466667l29.866667 89.6c4.266667 10.666667 0 21.333333-8.533334 29.866666L72.533333 490.666667c-4.266667 6.4-8.533333 12.8-8.533333 21.333333s4.266667 14.933333 8.533333 21.333333l70.4 61.866667c8.533333 6.4 10.666667 19.2 8.533334 29.866667l-27.733334 89.6c-2.133333 8.533333-2.133333 14.933333 2.133334 23.466666 2.133333 4.266667 8.533333 8.533333 17.066666 10.666667l91.733334 19.2c10.666667 2.133333 19.2 10.666667 21.333333 21.333333l19.2 91.733334c2.133333 8.533333 6.4 14.933333 12.8 19.2 6.4 4.266667 14.933333 4.266667 23.466667 2.133333l89.6-29.866667c10.666667-4.266667 21.333333 0 29.866666 8.533334l61.866667 70.4c4.266667 6.4 12.8 8.533333 21.333333 8.533333s14.933333-4.266667 21.333334-8.533333l61.866666-70.4c6.4-8.533333 19.2-10.666667 29.866667-8.533334l89.6 29.866667c8.533333 2.133333 14.933333 2.133333 23.466667-2.133333 6.4-4.266667 10.666667-10.666667 12.8-19.2l19.2-91.733334c2.133333-10.666667 10.666667-19.2 21.333333-21.333333l91.733333-19.2c8.533333-2.133333 14.933333-6.4 19.2-12.8 4.266667-6.4 4.266667-14.933333 2.133334-23.466667L874.666667 625.066667c-4.266667-10.666667 0-21.333333 8.533333-29.866667l68.266667-61.866667z" fill="#EA8800" opacity=".39" p-id="41573"></path><path d="M878.933333 529.066667c4.266667-4.266667 8.533333-10.666667 8.533334-17.066667 0-6.4-2.133333-12.8-8.533334-17.066667l-57.6-53.333333c-6.4-6.4-8.533333-14.933333-6.4-23.466667l23.466667-74.666666c2.133333-6.4 2.133333-12.8-2.133333-19.2-4.266667-6.4-8.533333-10.666667-14.933334-10.666667l-76.8-14.933333c-8.533333-2.133333-17.066667-8.533333-17.066666-17.066667l-17.066667-76.8c-2.133333-8.533333-6.4-12.8-10.666667-17.066667-6.4-4.266667-12.8-4.266667-19.2-2.133333l-74.666666 23.466667c-8.533333 2.133333-19.2 0-23.466667-6.4l-53.333333-59.733334c-4.266667-4.266667-10.666667-8.533333-17.066667-8.533333-6.4 0-12.8 2.133333-17.066667 8.533333l-53.333333 57.6c-4.266667 10.666667-14.933333 12.8-23.466667 10.666667l-74.666666-23.466667c-6.4-2.133333-12.8-2.133333-19.2 2.133334-4.266667 2.133333-8.533333 6.4-10.666667 12.8l-14.933333 76.8c-2.133333 8.533333-8.533333 17.066667-17.066667 17.066666l-76.8 14.933334c-8.533333 4.266667-12.8 8.533333-17.066667 12.8-4.266667 6.4-4.266667 12.8-2.133333 19.2l23.466667 74.666666c2.133333 8.533333 0 19.2-6.4 23.466667l-57.6 53.333333c-4.266667 4.266667-8.533333 10.666667-8.533334 17.066667 0 6.4 2.133333 12.8 8.533334 17.066667l57.6 53.333333c6.4 6.4 8.533333 14.933333 6.4 23.466667l-23.466667 74.666666c-2.133333 6.4-2.133333 12.8 2.133333 19.2 4.266667 4.266667 8.533333 8.533333 14.933334 10.666667l76.8 17.066667c8.533333 2.133333 17.066667 8.533333 17.066666 17.066666l17.066667 76.8c2.133333 6.4 6.4 12.8 10.666667 14.933334 6.4 4.266667 12.8 4.266667 19.2 2.133333l74.666666-23.466667c8.533333-2.133333 19.2 0 23.466667 6.4l53.333333 57.6c4.266667 4.266667 10.666667 8.533333 17.066667 8.533334s12.8-2.133333 17.066667-8.533334l53.333333-57.6c6.4-6.4 14.933333-8.533333 23.466667-6.4l74.666666 23.466667c6.4 2.133333 12.8 2.133333 19.2-2.133333 6.4-4.266667 10.666667-8.533333 10.666667-14.933334l17.066667-76.8c2.133333-8.533333 8.533333-17.066667 17.066666-17.066666l76.8-17.066667c6.4-2.133333 12.8-6.4 14.933334-10.666667 4.266667-6.4 4.266667-12.8 2.133333-19.2l-23.466667-74.666666c-2.133333-8.533333 0-19.2 6.4-23.466667l57.6-53.333333z" fill="#FDA917" p-id="41574"></path><path d="M484.266667 315.733333c-12.8-12.8-25.6-23.466667-44.8-25.6-2.133333 0-6.4 0-8.533334-2.133333h-8.533333c-2.133333 0-6.4 0-8.533333 2.133333-19.2 4.266667-34.133333 12.8-44.8 27.733334-12.8 14.933333-19.2 32-23.466667 51.2 0 4.266667 0 8.533333-2.133333 12.8v10.666666c0 4.266667 0 6.4 2.133333 10.666667 4.266667 29.866667 19.2 55.466667 44.8 72.533333 4.266667 4.266667 10.666667 6.4 17.066667 8.533334 2.133333 0 2.133333 0 2.133333 2.133333 0 10.666667-2.133333 21.333333-2.133333 34.133333l-2.133334 27.733334-2.133333 34.133333-2.133333 34.133333c0 12.8-2.133333 27.733333-2.133334 40.533334 0 10.666667-2.133333 21.333333-2.133333 34.133333 0 6.4 0 14.933333-2.133333 21.333333-2.133333 14.933333 8.533333 27.733333 21.333333 29.866667h19.2c12.8-2.133333 23.466667-12.8 23.466667-27.733333 0-12.8-2.133333-25.6-2.133334-40.533334-2.133333-21.333333-2.133333-42.666667-4.266666-64-2.133333-19.2-2.133333-36.266667-4.266667-55.466666-2.133333-21.333333-2.133333-42.666667-4.266667-64 0-2.133333 0-2.133333 2.133334-4.266667 19.2-6.4 34.133333-19.2 44.8-36.266667 14.933333-21.333333 19.2-46.933333 17.066666-72.533333-2.133333-27.733333-8.533333-46.933333-23.466666-61.866667zM669.866667 288c-2.133333 8.533333-2.133333 14.933333-4.266667 23.466667-2.133333 17.066667-6.4 34.133333-8.533333 51.2-2.133333 17.066667-6.4 34.133333-8.533334 51.2l-2.133333 12.8v2.133333h-17.066667v-8.533333c-2.133333-14.933333-2.133333-27.733333-4.266666-42.666667s-2.133333-27.733333-4.266667-42.666667c0-12.8-2.133333-25.6-2.133333-38.4v-8.533333h-10.666667c0 6.4 0 14.933333-2.133333 21.333333 0 10.666667-2.133333 19.2-2.133334 29.866667 0 10.666667-2.133333 19.2-2.133333 29.866667 0 10.666667-2.133333 19.2-2.133333 29.866666 0 10.666667-2.133333 21.333333-2.133334 32h-21.333333c0-6.4-2.133333-10.666667-2.133333-14.933333-2.133333-17.066667-6.4-34.133333-8.533334-51.2-2.133333-17.066667-6.4-36.266667-8.533333-53.333333-2.133333-6.4-2.133333-12.8-4.266667-21.333334h-10.666666V469.333333c0 10.666667 6.4 14.933333 14.933333 14.933334h34.133333v2.133333c0 8.533333-2.133333 17.066667-2.133333 25.6 0 10.666667-2.133333 23.466667-2.133333 34.133333 0 12.8-2.133333 25.6-2.133334 40.533334 0 12.8-2.133333 25.6-2.133333 40.533333 0 12.8-2.133333 25.6-2.133333 40.533333s-2.133333 27.733333-2.133334 42.666667 6.4 25.6 19.2 29.866667h23.466667c2.133333 0 4.266667 0 4.266667-2.133334 10.666667-4.266667 19.2-12.8 19.2-25.6 0-8.533333 0-14.933333-2.133334-23.466666 0-8.533333-2.133333-19.2-2.133333-27.733334 0-10.666667-2.133333-23.466667-2.133333-34.133333 0-8.533333 0-19.2-2.133334-27.733333 0-10.666667-2.133333-23.466667-2.133333-34.133334l-2.133333-34.133333-2.133334-34.133333v-12.8H665.6c8.533333 0 12.8-4.266667 14.933333-12.8v-183.466667-2.133333h-10.666666z" fill="#FFFFFF" p-id="41575"></path></svg>