<svg t="1761621663734" class="icon" viewBox="0 0 1024 1024" version="1.1" xmlns="http://www.w3.org/2000/svg" p-id="33449" width="200" height="200"><path d="M420.43 226.45l383.52 561c8.12 11.88 24.52 14.56 36 5.89l2.33-1.76c10.68-8.07 13.19-23.08 5.71-34.19l-66.57-98.84c-7.55-11.21-22.6-14.47-34.11-7.39a4.875 4.875 0 0 1-6.56-1.37L445.4 224.13a4.882 4.882 0 0 0-3.1-2.01l-16.94-3.22c-4.27-0.81-7.39 3.96-4.93 7.55z" fill="#FFD39C" opacity=".8" p-id="33450"></path><path d="M759.05 647.44s12.68-1.15 20.81 8.91l67.15 99.42s9.58 12.8 3.29 25.87l-91.25-134.2z" fill="#BD995D" opacity=".8" p-id="33451"></path><path d="M506.41 258.6l-171.77 18.78c-21.36 2.34-37.22-19.36-28.52-39.01L376.4 79.75c8.71-19.65 35.43-22.47 48.05-5.08l101.48 139.85c12.58 17.32 1.75 41.75-19.52 44.08z" fill="#EF9A0E" opacity=".8" p-id="33452"></path><path d="M474.3 262.34c31.87 0 53.64-44.72 32.64-73.67l-63.48-87.48c-13.18-18.16-35.57-23.13-54.05-16.29 0 0 17.35-4.8 44.72 27.28l62.28 94.36c-0.01 0.01 18.83 22.07-22.11 55.8z" fill="#BC532E" opacity=".6" p-id="33453"></path><path d="M365.44 148.46l-5.2-2.3a4.245 4.245 0 0 1-2.16-5.59l11.48-25.9c0.95-2.14 3.45-3.1 5.59-2.16l5.2 2.3c2.14 0.95 3.1 3.45 2.16 5.59l-11.48 25.9a4.228 4.228 0 0 1-5.59 2.16z" fill="#FFFFFF" opacity=".8" p-id="33454"></path><path d="M357.56 159.24m-7.31 0a7.31 7.31 0 1 0 14.62 0 7.31 7.31 0 1 0-14.62 0Z" fill="#FFFFFF" opacity=".8" p-id="33455"></path><path d="M548 251.49L415.97 360.94c-9.6 7.96-23.84 6.63-31.81-2.97l-19.34-23.33c-7.96-9.6-6.63-23.84 2.97-31.81l132.02-109.45c9.6-7.96 23.84-6.63 31.81 2.97l19.34 23.33c7.97 9.6 6.64 23.84-2.96 31.81z" fill="#FF4407" opacity=".8" p-id="33456"></path><path d="M536.09 261.2c17.81-14.83 18.27-37.1 4.97-53.15-13.3-16.05-37.1-18.27-53.15-4.97 0 0.01 69.69-4.66 48.18 58.12z" fill="#D13B1E" opacity=".8" p-id="33457"></path><path d="M572.41 282.83l-96.75 141.59c-7.04 10.3-21.09 12.94-31.39 5.91l-25.03-17.1c-10.3-7.04-12.94-21.09-5.91-31.39l96.75-141.59c7.04-10.3 21.09-12.94 31.39-5.91l25.03 17.1c10.31 7.04 12.95 21.09 5.91 31.39z" fill="#F7D601" opacity=".8" p-id="33458"></path><path d="M550.8 314.24c30.86-31.53 20.18-59.49 2.97-71.25-17.21-11.76-46.34-11.87-65.3 28.66 0.01 0.01 76.52-43.85 62.33 42.59z" fill="#E4A003" opacity=".8" p-id="33459"></path><path d="M552.38 472.37l-109.01-78.7c-17.42-12.58-14.66-39.31 4.96-48.06l123.29-54.99c19.63-8.75 41.36 7.05 39.08 28.42l-14.28 133.69c-2.28 21.28-26.69 32.17-44.04 19.64z" fill="#EF9A0E" opacity=".8" p-id="33460"></path><path d="M530.71 456.82c25.47 12.41 59.44 2.34 67.71-28.6l8.82-76.88c3.19-37.1-30.78-51.29-41.04-51.29 0 0 30.42 20.68 27.4 54.06l-14.56 79.13c0.01 0-9.95 26.21-48.33 23.58z" fill="#BC532E" opacity=".6" p-id="33461"></path><path d="M671.81 541.52l-31.31-15.84c-5.16-2.61-11.39 0.34-12.65 5.98l-7.65 34.24c-1.88 8.4-13.42 9.47-16.8 1.56l-13.8-32.26c-2.27-5.31-8.94-7.07-13.54-3.55l-27.87 21.31c-6.84 5.23-16.36-1.37-13.87-9.61l10.16-33.58c1.67-5.53-2.31-11.16-8.08-11.42l-35.05-1.59c-8.6-0.39-11.65-11.57-4.45-16.28l29.37-19.19c4.84-3.16 5.41-10.04 1.15-13.95l-25.83-23.74c-6.34-5.82-1.49-16.35 7.05-15.33l34.84 4.17c5.74 0.69 10.59-4.21 9.85-9.95l-4.52-34.79c-1.11-8.54 9.37-13.49 15.26-7.21l24 25.59c3.95 4.22 10.82 3.58 13.94-1.29l18.9-29.56c4.64-7.25 15.85-4.31 16.32 4.29l1.94 35.03c0.32 5.77 5.99 9.7 11.5 7.97l33.48-10.5c8.21-2.58 14.91 6.88 9.75 13.77l-21.03 28.08c-3.47 4.63-1.65 11.28 3.69 13.5l32.39 13.48c7.95 3.31 6.99 14.86-1.39 16.82l-34.16 7.99c-5.63 1.32-8.51 7.58-5.85 12.71l16.15 31.15c3.94 7.65-4.21 15.89-11.89 12z" fill="#4C9C04" opacity=".8" p-id="33462"></path><path d="M684.22 488.37l-19.6 14.23c-6.34 4.6-7.31 13.67-2.08 19.51l16.15 18.05c8.29 9.27 0.36 23.82-11.92 21.87l-23.92-3.8c-7.73-1.23-14.83 4.5-15.27 12.32l-1.34 24.18c-0.69 12.42-16.59 17.1-23.89 7.03l-14.23-19.6c-4.6-6.34-13.67-7.31-19.51-2.08l-18.05 16.15c-9.27 8.29-23.82 0.36-21.87-11.92l3.8-23.92c1.23-7.73-4.5-14.83-12.32-15.27L496 543.78c-12.42-0.69-17.1-16.59-7.03-23.89l19.6-14.23c6.34-4.6 7.31-13.67 2.08-19.51L494.5 468.1c-8.29-9.27-0.36-23.82 11.92-21.87l23.92 3.8c7.73 1.23 14.83-4.5 15.27-12.32l1.34-24.18c0.69-12.42 16.59-17.1 23.89-7.03l14.23 19.6c4.6 6.34 13.67 7.31 19.51 2.08l18.05-16.15c9.27-8.29 23.82-0.36 21.87 11.92l-3.8 23.92c-1.23 7.73 4.5 14.83 12.32 15.27l24.18 1.34c12.41 0.69 17.09 16.59 7.02 23.89z" fill="#97CF4C" opacity=".8" p-id="33463"></path><path d="M696.53 605.09L573.1 577.73c-12.38-2.74-17.08-17.91-8.43-27.18l87.75-93.93c8.66-9.27 24.11-5.61 27.69 6.56l35.68 121.29c3.52 11.96-7.08 23.32-19.26 20.62z" fill="#BC532E" opacity=".6" p-id="33464"></path><path d="M677.3 601.27l-103.86-24.08c-11.97-2.77-16.44-17.46-8.06-26.44l72.78-77.91c8.38-8.98 23.34-5.51 26.92 6.24l31.08 101.99c3.59 11.76-6.89 22.97-18.86 20.2z" fill="#EF9A0E" opacity=".8" p-id="33465"></path><path d="M639.51 495.41a7.4 3.54 0 1 0 14.8 0 7.4 3.54 0 1 0-14.8 0Z" fill="#FFFFFF" opacity=".8" p-id="33466"></path><path d="M621.12 505.08a7.4 3.54 0 1 0 14.8 0 7.4 3.54 0 1 0-14.8 0Z" fill="#FFFFFF" opacity=".8" p-id="33467"></path><path d="M651.79 514.52a7.4 3.54 0 1 0 14.8 0 7.4 3.54 0 1 0-14.8 0Z" fill="#FFFFFF" opacity=".8" p-id="33468"></path><path d="M290.43 388.24l383.52 561c8.12 11.88 24.52 14.56 36 5.89l2.33-1.76c10.68-8.07 13.19-23.08 5.71-34.19l-66.57-98.84c-7.55-11.21-22.6-14.47-34.11-7.39a4.875 4.875 0 0 1-6.56-1.37L315.41 385.92a4.882 4.882 0 0 0-3.1-2.01l-16.94-3.22c-4.28-0.81-7.39 3.96-4.94 7.55z" fill="#FFD39C" opacity=".8" p-id="33469"></path><path d="M629.06 809.23s12.68-1.15 20.81 8.91l67.15 99.42s9.58 12.8 3.29 25.87l-91.25-134.2z" fill="#BD995D" opacity=".8" p-id="33470"></path><path d="M376.41 420.39l-171.77 18.78c-21.36 2.34-37.22-19.36-28.52-39.01l70.28-158.62c8.71-19.65 35.43-22.47 48.05-5.08l101.5 139.84c12.57 17.33 1.74 41.76-19.54 44.09z" fill="#EF9A0E" opacity=".8" p-id="33471"></path><path d="M344.31 424.13c31.87 0 53.64-44.72 32.64-73.67l-63.48-87.48c-13.18-18.16-35.57-23.13-54.05-16.29 0 0 17.35-4.8 44.72 27.28l62.28 94.36c-0.01 0.01 18.83 22.07-22.11 55.8z" fill="#BC532E" opacity=".6" p-id="33472"></path><path d="M235.44 310.25l-5.2-2.3a4.245 4.245 0 0 1-2.16-5.59l11.48-25.9c0.95-2.14 3.45-3.1 5.59-2.16l5.2 2.3c2.14 0.95 3.1 3.45 2.16 5.59l-11.48 25.9a4.228 4.228 0 0 1-5.59 2.16z" fill="#FFFFFF" opacity=".8" p-id="33473"></path><path d="M227.56 321.03m-7.31 0a7.31 7.31 0 1 0 14.62 0 7.31 7.31 0 1 0-14.62 0Z" fill="#FFFFFF" opacity=".8" p-id="33474"></path><path d="M418 413.27L285.98 522.73c-9.6 7.96-23.84 6.63-31.81-2.97l-19.34-23.33c-7.96-9.6-6.63-23.84 2.97-31.81l132.02-109.45c9.6-7.96 23.84-6.63 31.81 2.97l19.34 23.33c7.97 9.6 6.64 23.84-2.97 31.8z" fill="#FF4407" opacity=".8" p-id="33475"></path><path d="M406.1 422.99c17.81-14.83 18.27-37.1 4.97-53.15-13.3-16.05-37.1-18.27-53.15-4.97 0 0.01 69.68-4.66 48.18 58.12z" fill="#D13B1E" opacity=".8" p-id="33476"></path><path d="M442.42 444.62l-96.75 141.59c-7.04 10.3-21.09 12.94-31.39 5.91l-25.03-17.1c-10.3-7.04-12.94-21.09-5.91-31.39l96.75-141.59c7.04-10.3 21.09-12.94 31.39-5.91l25.03 17.1c10.3 7.04 12.95 21.09 5.91 31.39z" fill="#F7D601" opacity=".8" p-id="33477"></path><path d="M420.81 476.03c30.86-31.53 20.18-59.49 2.97-71.25-17.21-11.76-46.34-11.87-65.3 28.66 0 0.01 76.51-43.85 62.33 42.59z" fill="#E4A003" opacity=".8" p-id="33478"></path><path d="M422.38 634.16l-109.01-78.7c-17.42-12.58-14.66-39.31 4.96-48.06l123.29-54.99c19.63-8.75 41.36 7.05 39.08 28.42l-14.28 133.69c-2.27 21.28-26.69 32.17-44.04 19.64z" fill="#EF9A0E" opacity=".8" p-id="33479"></path><path d="M400.72 618.61c25.47 12.41 59.44 2.34 67.71-28.6l8.82-76.88c3.19-37.1-30.78-51.29-41.04-51.29 0 0 30.42 20.68 27.4 54.06l-14.56 79.13c0.01 0-9.96 26.21-48.33 23.58z" fill="#BC532E" opacity=".6" p-id="33480"></path><path d="M541.81 703.31l-31.31-15.84c-5.16-2.61-11.39 0.34-12.65 5.98l-7.65 34.24c-1.88 8.4-13.42 9.47-16.8 1.56l-13.8-32.26c-2.27-5.31-8.94-7.07-13.54-3.55l-27.87 21.31c-6.84 5.23-16.36-1.37-13.87-9.61l10.16-33.58c1.67-5.53-2.31-11.16-8.08-11.42l-35.05-1.59c-8.6-0.39-11.65-11.57-4.45-16.28l29.37-19.19c4.84-3.16 5.41-10.04 1.15-13.95l-25.83-23.74c-6.34-5.82-1.49-16.35 7.05-15.33l34.83 4.17c5.74 0.69 10.59-4.21 9.85-9.95l-4.52-34.79c-1.11-8.54 9.37-13.49 15.26-7.21l24 25.59c3.95 4.22 10.82 3.58 13.94-1.29l18.9-29.56c4.64-7.25 15.85-4.31 16.32 4.29l1.94 35.03c0.32 5.77 5.99 9.7 11.5 7.97l33.48-10.5c8.21-2.58 14.91 6.88 9.75 13.77l-21.03 28.08c-3.47 4.63-1.65 11.28 3.69 13.5l32.39 13.48c7.95 3.31 6.99 14.86-1.39 16.82l-34.16 7.99c-5.63 1.32-8.51 7.58-5.85 12.71l16.15 31.15c3.96 7.65-4.2 15.89-11.88 12z" fill="#4C9C04" opacity=".8" p-id="33481"></path><path d="M554.23 650.16l-19.6 14.23c-6.34 4.6-7.31 13.67-2.08 19.51l16.15 18.05c8.29 9.27 0.36 23.82-11.92 21.87l-23.92-3.8c-7.73-1.23-14.83 4.5-15.27 12.32l-1.34 24.18c-0.69 12.42-16.59 17.1-23.89 7.03l-14.23-19.6c-4.6-6.34-13.67-7.31-19.51-2.08l-18.05 16.15c-9.27 8.29-23.82 0.36-21.87-11.92l3.8-23.92c1.23-7.73-4.5-14.83-12.32-15.27L366 705.57c-12.42-0.69-17.1-16.59-7.03-23.89l19.6-14.23c6.34-4.6 7.31-13.67 2.08-19.51l-16.15-18.05c-8.29-9.27-0.36-23.82 11.92-21.87l23.92 3.8c7.73 1.23 14.83-4.5 15.27-12.32l1.34-24.18c0.69-12.42 16.59-17.1 23.89-7.03l14.23 19.6c4.6 6.34 13.67 7.31 19.51 2.08l18.05-16.15c9.27-8.29 23.82-0.36 21.87 11.92l-3.8 23.92c-1.23 7.73 4.5 14.83 12.32 15.27l24.18 1.34c12.41 0.69 17.09 16.59 7.03 23.89z" fill="#97CF4C" opacity=".8" p-id="33482"></path><path d="M566.54 766.88l-123.43-27.35c-12.38-2.74-17.08-17.91-8.43-27.18l87.75-93.93c8.66-9.27 24.11-5.61 27.69 6.56l35.68 121.29c3.52 11.95-7.09 23.31-19.26 20.61z" fill="#BC532E" opacity=".6" p-id="33483"></path><path d="M547.31 763.06l-103.86-24.08c-11.97-2.77-16.44-17.46-8.06-26.44l72.78-77.91c8.38-8.98 23.34-5.51 26.92 6.24l31.08 101.99c3.59 11.75-6.9 22.97-18.86 20.2z" fill="#EF9A0E" opacity=".8" p-id="33484"></path><path d="M509.52 657.2a7.4 3.54 0 1 0 14.8 0 7.4 3.54 0 1 0-14.8 0Z" fill="#FFFFFF" opacity=".8" p-id="33485"></path><path d="M491.13 666.87a7.4 3.54 0 1 0 14.8 0 7.4 3.54 0 1 0-14.8 0Z" fill="#FFFFFF" opacity=".8" p-id="33486"></path><path d="M521.79 676.31a7.4 3.54 0 1 0 14.8 0 7.4 3.54 0 1 0-14.8 0Z" fill="#FFFFFF" opacity=".8" p-id="33487"></path></svg>