<svg t="1761621337656" class="icon" viewBox="0 0 1024 1024" version="1.1" xmlns="http://www.w3.org/2000/svg" p-id="10441" width="200" height="200"><path d="M961.422222 654.222222c0 99.555556-42.666667 85.333333-449.422222 82.488889-406.755556 2.844444-449.422222 5.688889-449.422222-79.644444 0-99.555556 42.666667-85.333333 449.422222-85.333334S961.422222 568.888889 961.422222 654.222222z" fill="#6B503B" p-id="10442"></path><path d="M307.2 597.333333a113.777778 28.444444 0 1 0 227.555556 0 113.777778 28.444444 0 1 0-227.555556 0Z" fill="#E24B4B" p-id="10443"></path><path d="M307.2 597.333333c0 14.222222 51.2 28.444444 113.777778 28.444445s113.777778-11.377778 113.777778-28.444445v22.755556c0 14.222222-51.2 28.444444-113.777778 28.444444s-113.777778-11.377778-113.777778-28.444444V597.333333z" fill="#D03F3F" p-id="10444"></path><path d="M935.822222 571.733333c5.688889 14.222222-34.133333 51.2-93.866666 68.266667-59.733333 17.066667-113.777778 8.533333-116.622223-8.533333-2.844444-17.066667 42.666667-34.133333 99.555556-48.355556 56.888889-17.066667 105.244444-28.444444 110.933333-11.377778z" fill="#E24B4B" p-id="10445"></path><path d="M728.177778 631.466667c2.844444 17.066667 54.044444 25.6 116.622222 8.533333 59.733333-17.066667 99.555556-54.044444 93.866667-68.266667 2.844444 8.533333 5.688889 14.222222 11.377777 22.755556 5.688889 14.222222-34.133333 51.2-96.711111 68.266667-62.577778 17.066667-116.622222 8.533333-119.466666-5.688889-2.844444-8.533333-5.688889-17.066667-5.688889-25.6z" fill="#D03F3F" p-id="10446"></path><path d="M950.044444 725.333333c-22.755556 179.2-210.488889 147.911111-438.044444 147.911111S99.555556 907.377778 73.955556 725.333333c-2.844444-8.533333 5.688889-17.066667 17.066666-17.066666h844.8c8.533333 0 17.066667 8.533333 14.222222 17.066666z" fill="#E18823" p-id="10447"></path><path d="M674.133333 708.266667H91.022222c-8.533333 0-17.066667 8.533333-17.066666 17.066666 2.844444 28.444444 11.377778 51.2 22.755555 68.266667 59.733333 14.222222 125.155556 22.755556 199.111111 22.755556 167.822222 2.844444 312.888889-42.666667 378.311111-108.088889z" fill="#FFFFFF" opacity=".1" p-id="10448"></path><path d="M950.044444 725.333333c-22.755556 179.2-210.488889 147.911111-438.044444 147.911111-136.533333 0-258.844444 11.377778-341.333333-19.911111 56.888889 8.533333 119.466667 14.222222 182.044444 14.222223 244.622222 0 449.422222-68.266667 506.311111-162.133334h73.955556c11.377778 2.844444 19.911111 11.377778 17.066666 19.911111z" fill="#CF7519" p-id="10449"></path><path d="M967.111111 731.022222c0 14.222222-28.444444 5.688889-42.666667 8.533334-8.533333 2.844444-17.066667 2.844444-25.6 8.533333-8.533333 5.688889-17.066667 14.222222-25.6 22.755555-22.755556 19.911111-51.2 25.6-76.8 34.133334-5.688889 2.844444-14.222222 0-19.911111-8.533334-8.533333-8.533333-19.911111-14.222222-28.444444-5.688888-59.733333 42.666667-54.044444 54.044444-54.044445 25.6 2.844444-8.533333-8.533333-14.222222-19.911111-17.066667-22.755556-2.844444-48.355556-2.844444-71.111111-5.688889-8.533333 0-19.911111-2.844444-28.444444 0-25.6 8.533333-42.666667 39.822222-68.266667 34.133333-22.755556-2.844444-31.288889-31.288889-51.2-39.822222-28.444444-11.377778-59.733333 17.066667-88.177778 19.911111-8.533333 2.844444-17.066667-2.844444-22.755555-11.377778-8.533333-14.222222-25.6-22.755556-42.666667-25.6-31.288889-5.688889-62.577778 0-88.177778 14.222223-14.222222 11.377778-31.288889 19.911111-42.666666 8.533333-5.688889-5.688889-5.688889-17.066667-11.377778-22.755556-14.222222-19.911111-45.511111 5.688889-65.422222-5.688888-5.688889-2.844444-8.533333-17.066667-14.222223-17.066667-2.844444 0-8.533333 14.222222-19.911111-5.688889-5.688889-8.533333-2.844444-19.911111 5.688889-25.6 5.688889-5.688889 11.377778-8.533333 19.911111-11.377778 39.822222-8.533333 82.488889-14.222222 125.155556-8.533333 96.711111 11.377778 193.422222 8.533333 292.977778 8.533333 71.111111 0 139.377778-2.844444 210.488889-2.844444 39.822222 0 76.8 0 116.622222-2.844445 36.977778 0 76.8-2.844444 113.777778 0 14.222222 0 25.6 14.222222 22.755555 31.288889z" fill="#8CC63E" p-id="10450"></path><path d="M99.555556 583.111111c139.377778 5.688889 452.266667 108.088889 483.555555 119.466667 62.577778 25.6 71.111111 93.866667 85.333333 62.577778 56.888889-99.555556 167.822222-164.977778 281.6-162.133334-17.066667-31.288889-42.666667-54.044444-73.955555-71.111111-31.288889-17.066667-65.422222-25.6-99.555556-34.133333-176.355556-36.977778-676.977778 85.333333-676.977777 85.333333z" fill="#FFD93B" p-id="10451"></path><path d="M307.2 560.355556c2.844444 17.066667-45.511111 39.822222-108.088889 39.822222-62.577778 0-110.933333-22.755556-108.088889-39.822222 0-17.066667 48.355556-19.911111 108.088889-19.911112 56.888889 0 105.244444 2.844444 108.088889 19.911112z" fill="#E24B4B" p-id="10452"></path><path d="M88.177778 560.355556c-2.844444 17.066667 45.511111 39.822222 110.933333 39.822222 62.577778 0 110.933333-22.755556 108.088889-39.822222 0 8.533333 2.844444 17.066667 2.844444 25.6 2.844444 17.066667-48.355556 39.822222-110.933333 39.822222-65.422222 0-113.777778-22.755556-110.933333-39.822222-2.844444-8.533333 0-17.066667 0-25.6z" fill="#D03F3F" p-id="10453"></path><path d="M958.577778 574.577778c0-2.844444 2.844444-5.688889 2.844444-11.377778 0-2.844444-2.844444-5.688889-8.533333-8.533333-2.844444 0-8.533333 0-11.377778-2.844445-14.222222-2.844444-25.6-14.222222-36.977778-22.755555-5.688889-2.844444-11.377778-8.533333-14.222222-11.377778 0 34.133333-793.6 34.133333-793.6 0h-2.844444c-5.688889 8.533333-14.222222 19.911111-14.222223 31.288889 0 11.377778 0 31.288889 11.377778 31.288889 5.688889 0 42.666667-11.377778 51.2-8.533334l51.2 8.533334c17.066667 2.844444 34.133333 5.688889 51.2 14.222222 22.755556 8.533333 42.666667 25.6 68.266667 22.755555 22.755556-2.844444 42.666667-28.444444 65.422222-25.6 22.755556 2.844444 36.977778 25.6 59.733333 25.6 8.533333 0 19.911111-2.844444 28.444445-5.688888 5.688889-2.844444 14.222222-2.844444 19.911111-2.844445 28.444444-2.844444 56.888889 5.688889 82.488889 2.844445 19.911111-2.844444 36.977778-14.222222 56.888889-19.911112 19.911111-5.688889 42.666667-8.533333 56.888889 2.844445 11.377778 8.533333 17.066667 22.755556 28.444444 31.288889 11.377778 8.533333 28.444444 11.377778 34.133333 0 2.844444-5.688889 2.844444-8.533333 2.844445-14.222222 2.844444-5.688889 11.377778-8.533333 17.066667-11.377778 28.444444-8.533333 56.888889-14.222222 85.333333-19.911111 5.688889 5.688889 11.377778 11.377778 17.066667 14.222222s17.066667 2.844444 22.755555 0c2.844444-2.844444 5.688889-8.533333 11.377778-8.533333s11.377778 5.688889 14.222222 2.844444c2.844444 0 2.844444-2.844444 5.688889-5.688889s11.377778 0 14.222222 2.844445l11.377778 11.377777c5.688889 2.844444 11.377778 0 14.222222-2.844444 5.688889-5.688889-2.844444-11.377778-2.844444-19.911111z" fill="#8CC63E" p-id="10454"></path><path d="M896 548.977778c-256 39.822222-509.155556 39.822222-765.155556 0-36.977778-5.688889-62.577778-39.822222-56.888888-76.8C116.622222 204.8 281.6 147.911111 512 147.911111s395.377778 56.888889 440.888889 324.266667c5.688889 36.977778-19.911111 71.111111-56.888889 76.8z" fill="#E18823" p-id="10455"></path><path d="M896 548.977778c36.977778-5.688889 62.577778-39.822222 56.888889-76.8-31.288889-184.888889-119.466667-270.222222-250.311111-304.355556 31.288889 19.911111 65.422222 39.822222 88.177778 68.266667 31.288889 34.133333 51.2 82.488889 39.822222 128-5.688889 31.288889-28.444444 59.733333-54.044445 82.488889-25.6 19.911111-56.888889 34.133333-88.177777 45.511111-156.444444 59.733333-327.111111 73.955556-497.777778 65.422222 236.088889 31.288889 472.177778 28.444444 705.422222-8.533333z" fill="#CF7519" p-id="10456"></path><path d="M244.622222 338.488889c-2.844444 2.844444-8.533333 2.844444-11.377778 0-2.844444-2.844444-2.844444-8.533333 0-11.377778 2.844444-2.844444 22.755556-11.377778 22.755556-11.377778s-8.533333 19.911111-11.377778 22.755556z" fill="#FFD93B" p-id="10457"></path><path d="M628.622222 295.822222c0 5.688889-5.688889 8.533333-8.533333 8.533334-5.688889 0-8.533333-2.844444-8.533333-8.533334 0-5.688889 11.377778-22.755556 11.377777-22.755555s5.688889 17.066667 5.688889 22.755555z" fill="#FFD93B" p-id="10458"></path><path d="M520.533333 366.933333c2.844444 2.844444 0 8.533333-2.844444 11.377778-2.844444 2.844444-8.533333 0-11.377778-2.844444-2.844444-2.844444-2.844444-22.755556-2.844444-22.755556s14.222222 11.377778 17.066666 14.222222z" fill="#FFD93B" p-id="10459"></path><path d="M750.933333 347.022222c0 5.688889-2.844444 8.533333-5.688889 8.533334s-8.533333-2.844444-8.533333-8.533334 2.844444-22.755556 2.844445-22.755555 11.377778 19.911111 11.377777 22.755555z" fill="#FFD93B" p-id="10460"></path><path d="M398.222222 364.088889c0 5.688889-2.844444 8.533333-8.533333 8.533333s-8.533333-2.844444-8.533333-8.533333 8.533333-22.755556 8.533333-22.755556 8.533333 17.066667 8.533333 22.755556z" fill="#FFD93B" p-id="10461"></path><path d="M298.666667 440.888889c0 5.688889-2.844444 8.533333-8.533334 8.533333s-8.533333-2.844444-8.533333-8.533333c0-5.688889 8.533333-22.755556 8.533333-22.755556s8.533333 17.066667 8.533334 22.755556z" fill="#FFD93B" p-id="10462"></path><path d="M472.177778 258.844444c0 5.688889-2.844444 8.533333-8.533334 8.533334-5.688889 0-8.533333-2.844444-8.533333-8.533334s8.533333-22.755556 8.533333-22.755555 8.533333 19.911111 8.533334 22.755555z" fill="#FFD93B" p-id="10463"></path><path d="M435.2 463.644444c0 5.688889-2.844444 8.533333-8.533333 8.533334s-8.533333-2.844444-8.533334-8.533334c0-5.688889 8.533333-22.755556 8.533334-22.755555s8.533333 17.066667 8.533333 22.755555z" fill="#FFD93B" p-id="10464"></path><path d="M338.488889 275.911111c0 5.688889-5.688889 5.688889-11.377778 5.688889s-5.688889-5.688889-5.688889-11.377778 14.222222-19.911111 14.222222-19.911111 2.844444 22.755556 2.844445 25.6z" fill="#FFD93B" p-id="10465"></path><path d="M603.022222 420.977778c2.844444 2.844444 0 8.533333-5.688889 11.377778-2.844444 2.844444-8.533333 0-11.377777-5.688889-2.844444-2.844444 0-22.755556 0-22.755556s17.066667 11.377778 17.066666 17.066667z" fill="#FFD93B" p-id="10466"></path><path d="M736.711111 514.844444c0 5.688889-2.844444 8.533333-8.533333 8.533334s-8.533333-2.844444-8.533334-8.533334c0-5.688889 5.688889-22.755556 5.688889-22.755555l11.377778 22.755555z" fill="#F4C534" p-id="10467"></path><path d="M836.266667 438.044444c0 5.688889-2.844444 8.533333-5.688889 8.533334-5.688889 0-8.533333-2.844444-8.533334-5.688889 0-5.688889 2.844444-22.755556 2.844445-22.755556s11.377778 14.222222 11.377778 19.911111z" fill="#F4C534" p-id="10468"></path><path d="M543.288889 147.911111c-247.466667-11.377778-420.977778 56.888889-463.644445 292.977778 298.666667 162.133333 713.955556-34.133333 600.177778-219.022222-28.444444-45.511111-82.488889-71.111111-136.533333-73.955556z" fill="#FFFFFF" opacity=".06" p-id="10469"></path><path d="M494.933333 238.933333c25.6 56.888889-79.644444 34.133333-170.666666 71.111111-82.488889 34.133333-125.155556 110.933333-147.911111 62.577778-19.911111-48.355556 25.6-116.622222 108.088888-153.6 88.177778-42.666667 184.888889-34.133333 210.488889 19.911111z" fill="#FFFFFF" opacity=".15" p-id="10470"></path></svg>