<svg t="1762134171285" class="icon" viewBox="0 0 1024 1024" version="1.1" xmlns="http://www.w3.org/2000/svg" p-id="3643" width="200" height="200"><path d="M970.752 697.344c0 91.648-74.24 165.888-165.888 165.888-80.384 0-148.992-57.344-163.328-136.704H382.464c-15.872 90.112-101.888 150.016-192 134.144-75.776-13.312-132.096-76.8-136.192-153.6h-0.512V609.28l97.792-136.704H92.16V414.208h370.688v58.368l-26.112 43.52-32.256 54.272h147.456l86.528-156.16V296.96h-58.368V238.592h156.16v1.024c36.352-6.656 70.656 17.92 77.312 53.76 1.024 4.608 1.024 8.704 1.024 13.312 0 3.072-0.512 6.144-1.024 9.216l1.024 0.512-1.536 3.072c-1.536 8.192-4.608 15.872-9.216 23.04l-28.672 71.168V512l38.912 19.456-0.512 0.512c88.064 4.608 157.184 77.312 157.184 165.376zM219.136 609.792c-48.64 0-87.552 39.424-87.552 88.064s39.424 87.552 88.064 87.552S307.2 745.984 307.2 697.344s-39.424-88.064-88.064-87.552c0-0.512 0-0.512 0 0z m585.728 0c-48.64 0-88.064 39.424-87.552 88.064 0 48.64 39.424 88.064 88.064 87.552 48.64 0 88.064-39.424 87.552-88.064-0.512-48.64-39.424-88.064-88.064-87.552z m0 116.736c-16.384 0-29.184-13.312-29.184-29.184 0-16.384 13.312-29.184 29.184-29.184s29.184 12.8 29.184 29.184-13.312 29.184-29.184 29.184z m-585.728 0c-16.384 0-29.184-13.312-29.184-29.184 0-16.384 13.312-29.184 29.184-29.184s29.184 13.312 29.184 29.184c0 16.384-12.8 29.184-29.184 29.184z m224.768-351.232H111.616c-10.752 0-19.456-8.704-19.456-19.456V180.224c0-10.752 8.704-19.456 19.456-19.456h331.776c10.752 0 19.456 8.704 19.456 19.456v175.616c0.512 10.752-8.192 19.456-18.944 19.456zM385.024 219.136H170.496v38.912h214.528v-38.912z" fill="#FF9700" p-id="3644"></path></svg>