<svg t="1762134232205" class="icon" viewBox="0 0 1024 1024" version="1.1" xmlns="http://www.w3.org/2000/svg" p-id="7588" width="200" height="200"><path d="M0 0h1024v1024H0V0z" fill="#202425" opacity=".01" p-id="7589"></path><path d="M102.4 102.4a68.266667 68.266667 0 0 1 68.266667-68.266667h682.666666a68.266667 68.266667 0 0 1 68.266667 68.266667v102.4a34.133333 34.133333 0 0 1-34.133333 34.133333H136.533333a34.133333 34.133333 0 0 1-34.133333-34.133333V102.4z" fill="#FFAA44" p-id="7590"></path><path d="M102.4 204.8a68.266667 68.266667 0 0 1 68.266667-68.266667h682.666666a68.266667 68.266667 0 0 1 68.266667 68.266667v771.857067a34.133333 34.133333 0 0 1-44.919467 32.3584l-343.108266-114.346667a68.266667 68.266667 0 0 0-43.144534 0L147.319467 1008.981333A34.133333 34.133333 0 0 1 102.4 976.657067V204.8z" fill="#FF7744" p-id="7591"></path><path d="M375.466667 273.066667a34.133333 34.133333 0 0 1 34.133333 34.133333v34.133333a34.133333 34.133333 0 1 1 0 68.266667v102.4a34.133333 34.133333 0 1 1 0 68.266667v102.4a102.4 102.4 0 0 1-102.4 102.4H273.066667a34.133333 34.133333 0 1 1 0-68.266667h34.133333a34.133333 34.133333 0 0 0 34.133333-34.133333v-102.4H273.066667a34.133333 34.133333 0 1 1 0-68.266667h68.266666v-102.4H273.066667a34.133333 34.133333 0 1 1 0-68.266667h68.266666V307.2a34.133333 34.133333 0 0 1 34.133334-34.133333z m375.466666 0a34.133333 34.133333 0 0 1 34.133334 34.133333v34.133333a34.133333 34.133333 0 0 1-34.133334 34.133334h-170.666666a34.133333 34.133333 0 0 0-34.133334 34.133333v68.266667h204.8a34.133333 34.133333 0 1 1 0 68.266666v204.8a34.133333 34.133333 0 1 1-68.266666 0v-204.8h-136.533334v204.8a34.133333 34.133333 0 1 1-68.266666 0V409.6a102.4 102.4 0 0 1 102.4-102.4h136.533333a34.133333 34.133333 0 0 1 34.133333-34.133333z" fill="#FFFFFF" p-id="7592"></path></svg>