<svg t="1761620989791" class="icon" viewBox="0 0 1024 1024" version="1.1" xmlns="http://www.w3.org/2000/svg" p-id="6807" width="200" height="200"><path d="M512 754.88c-24.06 0-46.19-12.08-59.2-32.33L345.38 555.38c-10.08-15.68-20.76-31.57-31.09-46.93l-6.72-10c-27.24-40.58-41.64-87.95-41.64-136.99 0-65.81 25.65-127.66 72.23-174.16 46.47-46.39 108.2-71.92 173.85-71.92h0.45c64.98 0.12 126.52 26.01 173.27 72.92 46.75 46.91 72.45 108.52 72.36 173.5-0.07 48.93-14.48 96.2-41.67 136.69l-6.42 9.55c-10.34 15.36-21.02 31.24-31.1 46.92L571.21 722.55c-13.01 20.24-35.14 32.33-59.2 32.33z m0-566.44c-46.16 0-89.56 17.95-122.23 50.57-32.75 32.69-50.78 76.18-50.78 122.45 0 34.48 10.11 67.77 29.24 96.27l6.69 9.95c10.54 15.68 21.45 31.88 31.94 48.21l105.15 163.64 105.42-164.06c10.49-16.33 21.4-32.54 31.95-48.21l6.39-9.5c19.1-28.43 29.22-61.65 29.26-96.06 0.13-93.75-78.96-173.09-172.7-173.26h-0.32z" fill="#474747" p-id="6808"></path><path d="M512 467.12c-54.65 0-99.11-44.46-99.11-99.11S457.35 268.9 512 268.9s99.11 44.46 99.11 99.11-44.46 99.11-99.11 99.11z m0-125.15c-14.36 0-26.04 11.68-26.04 26.04s11.68 26.04 26.04 26.04 26.04-11.68 26.04-26.04-11.68-26.04-26.04-26.04zM512 908.62c-99.47 0-193.53-15.33-264.86-43.16-36.94-14.41-66.46-31.67-87.74-51.3-32.83-30.28-39.72-60.7-39.72-80.89 0-19.08 6.19-47.94 35.69-77.03 19.17-18.91 45.88-35.77 79.39-50.09 18.55-7.93 40.02 0.68 47.95 19.23s-0.68 40.02-19.23 47.95c-52.21 22.32-70.73 46.25-70.73 59.95 0 15.01 21.2 40.81 80.96 64.12 63.07 24.61 147.7 38.16 238.31 38.16s175.24-13.55 238.31-38.16c59.76-23.31 80.96-49.11 80.96-64.12 0-13.56-18.23-37.26-69.6-59.46-18.52-8-27.05-29.5-19.04-48.03 8-18.52 29.5-27.05 48.03-19.04 33.12 14.31 59.51 31.11 78.45 49.94 29.12 28.96 35.23 57.63 35.23 76.59 0 20.18-6.89 50.6-39.72 80.89-21.28 19.63-50.8 36.89-87.74 51.3-71.33 27.83-165.4 43.16-264.87 43.16z" fill="#4F95FC" p-id="6809"></path></svg>