<svg t="1762134273178" class="icon" viewBox="0 0 1617 1024" version="1.1" xmlns="http://www.w3.org/2000/svg" p-id="8905" width="200" height="200"><path d="M1279.402492 877.915968c108.437522-164.978066 75.649441-383.132175-71.128473-509.530972a47.659122 47.659122 0 0 0 13.755019-13.313918c14.8445-21.727696 9.273231-51.364876-12.441827-66.22075-21.727696-14.8445-51.364876-9.274495-66.209375 12.440563a47.378537 47.378537 0 0 0-7.420354 17.652884c-171.056158-90.893333-386.223673-42.267327-500.596467 118.653621l644.041477 440.318572zM823.453275 519.327457l-89.843032-61.392654c116.923343-158.992238 304.81717-108.437522 304.81717-108.437521s-177.346586 46.512766-214.974138 169.830175z" fill="#D9621A" p-id="8906"></path><path d="M1235.560346 911.234887h-20.585132l-3.688058-2.49241-656.322788-443.58828 8.621058-12.129644c37.97386-53.428824 88.819273-97.207774 147.038276-126.602285 56.447016-28.500934 119.759533-43.565352 183.09101-43.565352 60.212172 0 120.138703 13.662754 174.342297 39.630833a63.10271 63.10271 0 0 1 3.39357-5.553574 62.173744 62.173744 0 0 1 51.362348-27.084103c12.539147 0 24.658679 3.751254 35.045405 10.846786 28.293654 19.356621 35.576243 58.122946 16.243637 86.421656a63.662618 63.662618 0 0 1-3.9282 5.151654c67.698249 63.01171 112.90667 145.972809 127.899046 235.322921 7.952456 47.389912 7.239616 94.940339-2.11956 141.333033-9.73961 48.275905-28.609629 93.951969-56.086804 135.75671l-4.306105 6.552055zM596.148533 457.901942L1220.996432 880.217529c95.378912-154.073141 61.660601-353.141104-82.133245-476.971657l-14.836917-12.77676 16.524222-10.504269a33.018111 33.018111 0 0 0 9.562664-9.265647c10.28435-15.053043 6.404179-35.700105-8.660239-46.005942a32.922054 32.922054 0 0 0-18.638726-5.774757 33.116695 33.116695 0 0 0-27.363424 14.421093 32.776706 32.776706 0 0 0-5.15671 12.24845l-3.77274 19.236551-17.310368-9.198661c-53.801674-28.589407-114.486545-43.700589-175.493709-43.700589-116.603576 0.001264-226.741043 54.302178-297.568707 145.976601z" fill="#5F6263" p-id="8907"></path><path d="M1223.778275 1023.986097H392.402878c-41.793365 0-75.796053-31.809823-75.796053-70.909817 0-39.101259 34.001424-70.911081 75.796053-70.911082h831.375397c41.799684 0 75.807428 31.811087 75.807428 70.911082 0 39.099995-34.007744 70.909818-75.807428 70.909817zM392.402878 911.234887c-25.764591 0-46.726365 18.771435-46.726365 41.841393 0 23.069958 20.960509 41.840129 46.726365 41.840129h831.375397c25.772175 0 46.73774-18.770171 46.737739-41.840129 0-23.071221-20.966829-41.841393-46.737739-41.841393H392.402878z" fill="#5F6263" p-id="8908"></path><path d="M624.868121 703.08075c50.42959 9.930458 85.261396 46.206902 97.828349 84.251541-13.675393-30.797439-45.018836-56.320626-86.219432-66.015999-0.245197-0.056875-0.473962-0.118807-0.712839-0.17821-41.549432-9.562664-83.040725-0.767187-111.72998 20.417033l18.257028 14.690304c13.605878 9.079854-11.534347 41.496348-25.140225 32.426605l-22.51005-12.406437a82.623638 82.623638 0 0 0-5.113737 13.367001c-8.742393 30.556034 1.170371 61.847658 23.725921 85.755581h446.166635c26.83385-25.04796 44.208677-56.764254 47.694512-91.622603L760.358148 614.169212c-62.511205 11.813669-110.685999 42.552968-135.490027 88.911538z" fill="#D9621A" p-id="8909"></path><path d="M522.897973 769.937242l2.961317-3.428959c8.167319-9.459024-2.156213-17.774219-14.86093-26.021163l-90.756832-69.223776c-9.089965-5.894827-20.34499-7.075309-29.009021-3.811921-3.436543 1.308136 8.143304 12.994151 5.820257 15.682465l-2.961316 3.418848c-2.139782 2.493674-18.097777-4.364245-18.657685-1.392817-1.574819 8.298764 2.88801 17.679426 12.253506 23.760047l103.32884 56.974061c12.711037 8.254528 23.709491 13.492127 31.881864 4.043215z" fill="#5F6263" p-id="8910"></path><path d="M1208.677203 805.275872l-10.888494-3.291194c21.141247-69.930295 18.145805-126.966288 11.912253-162.499559-6.760598-38.529976-18.682962-60.81758-18.803033-61.038763l9.989862-5.439823c0.518199 0.951716 12.788135 23.761311 19.916528 63.944467 6.538152 36.859101 9.742137 95.981792-12.127116 168.324872z" fill="#5F6263" p-id="8911"></path><path d="M1208.809913 804.602214a5.68502 5.68502 0 0 1-7.04624 3.876379 5.687548 5.687548 0 0 1-3.878908-7.044975l0.851869-2.934775a5.68502 5.68502 0 0 1 7.046239-3.87638 5.687548 5.687548 0 0 1 3.878908 7.044976l-0.851868 2.934775zM965.439744 793.450828a5.687548 5.687548 0 1 1-11.225955-1.851613l0.497976-3.015664a5.687548 5.687548 0 1 1 11.225956 1.851613l-0.497977 3.015664zM926.110984 854.254505a5.687548 5.687548 0 1 1-7.726218-8.350584l2.242158-2.075323a5.686284 5.686284 0 0 1 8.037137 0.314711 5.687548 5.687548 0 0 1-0.309656 8.03461l-2.243421 2.076586zM1208.314464 590.462249a5.687548 5.687548 0 0 1-10.524491 4.314953l-6.871822-16.764363a5.686284 5.686284 0 0 1 3.105401-7.41909 5.68502 5.68502 0 0 1 7.417827 3.104137l6.873085 16.764363z" fill="#5F6263" p-id="8912"></path></svg>