<svg t="1761621377300" class="icon" viewBox="0 0 1024 1024" version="1.1" xmlns="http://www.w3.org/2000/svg" p-id="11918" width="200" height="200"><path d="M116.992 503.808c-8.6016-20.9408-69.5296-164.608 95.1808-218.4704 0.9728-101.888 93.3376-159.6928 185.7024-108.7488 33.3312-117.76 216.1152-115.6096 238.0288 3.8912 77.1072-36.1984 207.5648-35.2256 213.2992 121.4976 96.1536 31.3856 99.9424 161.6384 59.0336 201.8304-136.192 284.1088-720.896 171.4688-791.2448 0z" fill="#FFDC6E" p-id="11919"></path><path d="M570.4192 157.5424c9.5232 30.0544 43.8272 25.856 65.4848 22.9376-5.12-63.5392-76.4928-97.28-122.0608-90.6752 23.7568 15.0528 50.6368 35.2768 56.576 67.7376zM849.2032 302.08c-3.9424-107.8784-66.9696-141.9776-131.0208-140.9024 31.2832 20.48 53.9648 58.1632 56.32 121.4976 95.8976 31.232 99.8912 161.536 58.9824 201.6768-80.8448 168.96-319.8976 197.5296-515.4816 157.184 204.2368 65.024 498.688 53.248 590.2336-137.728 40.9088-40.192 37.12-170.4448-59.0336-201.728z" fill="#FFCB39" p-id="11920"></path><path d="M397.8752 176.5888c-92.16-51.2-184.7296 6.8608-185.7024 108.7488C47.4624 339.2 108.3904 482.8672 116.992 503.808a114.2272 114.2272 0 0 0 10.24 18.8928l1.9968 0.6144s-34.6112-152.32 97.9968-221.952c48.384-87.9104 118.7328-114.3296 180.3264-104.8064 15.9744-29.7472 83.3536-119.7568 208.3328-62.2592C561.9712 63.1808 426.1376 76.8 397.8752 176.5888z" fill="#FFFFFF" p-id="11921"></path><path d="M238.7456 212.6848a10.24 10.24 0 0 1-6.1952-2.0992 10.24 10.24 0 0 1-1.9456-14.336c37.2736-49.152 100.9664-62.1568 161.3312-34.1504a122.88 122.88 0 0 1 25.6-40.96 10.24 10.24 0 0 1 14.848 14.1312A104.3968 104.3968 0 0 0 407.7056 179.2a10.24 10.24 0 0 1-14.7968 6.144c-54.1696-29.9008-112.64-20.48-146.0224 23.0912a10.24 10.24 0 0 1-8.1408 4.2496z" fill="#A5684D" p-id="11922"></path><path d="M549.888 687.4112c-7.2704 0-14.592 0-22.016-0.3072-196.7616-5.632-381.3888-84.48-420.352-179.2l-0.3072-1.024c-28.5696-69.4272-18.944-117.76-5.8368-146.3808 17.152-37.1712 51.2-64.9216 100.8128-82.5856 0-4.8128 0.6656-9.5744 1.3312-14.2336A10.24 10.24 0 0 1 215.04 254.9248 10.24 10.24 0 0 1 223.7952 266.24a153.6 153.6 0 0 0-1.3824 18.9952 10.24 10.24 0 0 1-7.0656 9.6256c-47.8208 15.6672-79.9232 40.5504-95.3344 73.984-11.4176 24.7808-19.6608 67.4304 6.144 130.2016l0.3072 0.6656c35.5328 86.5792 215.8592 161.3824 401.9712 166.7072 182.016 5.12 317.0816-55.7056 370.5344-167.2192a10.5472 10.5472 0 0 1 2.1504-2.56c19.2-18.8416 26.7776-62.3104 17.664-101.1712-5.632-24.2176-22.6816-67.2768-72.704-83.6096a10.24 10.24 0 0 1-7.0656-9.3696c-2.048-55.552-20.1728-94.1568-53.9136-114.7392-45.0048-27.4432-106.1376-15.9744-144.7936 2.1504a10.24 10.24 0 0 1-14.4384-7.3728 95.0272 95.0272 0 0 0-44.1344-65.536 124.1088 124.1088 0 0 0-98.2528-11.9296 10.24 10.24 0 0 1-5.6832-19.712 144.896 144.896 0 0 1 114.688 14.2336 114.1248 114.1248 0 0 1 50.6368 66.56c43.3152-17.152 105.0624-25.1392 152.6272 3.8912 26.6752 16.2304 58.88 51.2 63.3856 124.5184 54.3744 20.8896 73.216 68.6592 79.616 96 10.752 46.08 1.6896 94.464-22.016 119.1424-55.3984 113.6128-188.3136 177.7152-366.848 177.7152z" fill="#A5684D" p-id="11923"></path><path d="M720.128 229.2736s33.3312-37.6832 13.824-60.2112-14.6944-97.28 60.928-75.4688c20.0192 7.8336 34.304 29.1328 31.8976 42.1376 13.1072-8.0896 78.336 1.536 64.0512 59.0336-6.0928 26.4192-28.928 29.0304-64.8192 28.1088C807.4752 223.232 788.48 266.24 788.48 266.24z" fill="#FFD38D" p-id="11924"></path><path d="M818.7904 141.9776a30.72 30.72 0 0 1 13.2096-8.0896 17.6128 17.6128 0 0 0-5.12 1.8432c2.4064-13.0048-11.8784-34.304-31.8976-42.1376L788.48 92.16c25.6 14.336 32.512 37.9392 30.3104 49.8176zM864.8704 138.6496c10.24 7.4752 11.264 15.36 6.0928 37.2736-6.0416 26.4704-23.808 25.6-59.6992 24.5248-18.5856 0.4096-42.2912 54.016-42.2912 54.016l-47.9232-26.2144-0.9216 1.024L788.48 266.24s19.2512-42.8032 37.7856-43.1616c35.84 0.9216 58.7264-1.6896 64.8192-28.1088 7.4752-31.1296-8.192-48.4864-26.2144-56.32z" fill="#FFAE55" p-id="11925"></path><path d="M744.6016 238.848s34.1504-38.5024 14.592-61.0304-12.2368-88.2176 58.6752-70.9632c-2.9184-1.9456-19.2-11.7248-22.4256-13.056l-1.1264-0.3584c-75.0592-21.4016-79.8208 53.1456-60.3648 75.52s-13.824 60.2112-13.824 60.2112L788.48 266.24l0.5632-1.2288z" fill="#FFFFFF" p-id="11926"></path><path d="M788.48 276.48a10.24 10.24 0 0 1-4.864-1.2288l-68.0448-36.7616a10.24 10.24 0 0 1-2.8672-15.7696c7.1168-8.0896 24.832-33.9968 13.7728-46.7968-13.4656-15.36-17.8688-49.2544-2.7648-72.8576 8.192-12.8 28.7744-32.3072 74.2912-19.0976l0.8704 0.3072a65.024 65.024 0 0 1 37.2224 39.0656 73.984 73.984 0 0 1 45.6704 13.2096c18.7392 13.7216 25.6 35.328 19.2512 60.8768-8.6016 37.5808-46.9504 36.608-75.008 35.84-6.4 0-20.48 19.712-28.2112 37.12a10.24 10.24 0 0 1-6.0416 5.4784 10.24 10.24 0 0 1-3.2768 0.6144z m-52.5824-50.2784l48.0768 25.9584c8.192-15.36 23.6544-38.9632 42.0864-39.3216 39.4752 0.9728 51.2-3.328 55.04-20.1728s0.768-30.0032-10.24-38.7072c-14.1824-11.2128-34.5088-11.3152-38.4-9.2672a10.24 10.24 0 0 1-15.36-10.5984c1.1776-6.5536-8.6016-23.8592-25.1392-30.72-17.152-5.12-39.68-6.912-50.8928 10.5984-9.6256 15.0528-7.3728 38.8096 0.9728 48.4352 16.2304 19.0464 5.888 45.6192-6.4 63.5904z" fill="#A04947" p-id="11927"></path><path d="M230.4 356.7616c16.1792-11.9296 36.6592-4.4032 46.08-27.8528s71.1168-31.5392 80.64-16.896 28.5696 44.7488 39.5776 51.2 36.6592 78.4384 27.8528 109.2096S337.3056 517.12 291.84 523.1104 225.9456 454.6048 224.4608 414.72 221.4912 363.52 230.4 356.7616z" fill="#FF8A50" p-id="11928"></path><path d="M396.6976 363.52c-11.008-6.5536-30.0544-36.608-39.5776-51.2-3.9936-6.144-17.2544-8.2944-31.9488-6.9632 9.5232 14.1824 20.992 30.0544 28.6208 34.6624 11.008 6.6048 36.6592 78.3872 27.8528 109.2096s-87.04 44.6464-132.352 50.5344c10.5472 15.7184 24.576 25.9584 42.5984 23.6544 45.4144-5.8368 123.8528-19.7632 132.6592-50.5856S407.7056 369.92 396.6976 363.52z" fill="#F96943" p-id="11929"></path><path d="M246.7328 424.96c-1.4848-39.7312-2.9696-51.5584 5.8368-58.0608 16.1792-11.9296 36.6592-4.4032 46.08-27.8528 6.6048-16.2304 38.0928-25.088 60.0576-24.1664-0.6144-0.8704-1.1776-1.792-1.6896-2.6112-9.5232-14.6432-71.1168-6.5536-80.64 16.896s-30.0032 15.9232-46.08 27.8528C221.4912 363.52 222.976 375.0912 224.4608 414.72c1.3824 37.2736 19.5072 105.0112 59.2384 108.4928C259.328 502.528 247.808 454.144 246.7328 424.96z" fill="#FFFFFF" p-id="11930"></path><path d="M286.72 533.7088a48.4352 48.4352 0 0 1-31.8464-12.3392c-27.8528-23.6032-39.5776-76.4416-40.704-106.1888l-0.4096-11.1616c-1.3824-33.792-1.8432-46.4384 10.24-55.5008a61.7472 61.7472 0 0 1 22.8864-9.6256c11.008-2.816 16.0256-4.4544 19.8656-13.8752 7.7312-18.944 35.3792-28.0576 56.7296-30.1056 12.1344-1.1776 33.6896-1.1776 41.984 11.52l1.792 2.816c7.8336 12.032 26.1632 40.3456 34.4576 45.312 12.0832 7.2192 22.8864 40.96 25.9072 51.2 5.12 16.9472 12.4928 48.4864 6.5024 69.376-7.936 27.7504-54.1184 46.6944-141.2096 57.9072a45.3632 45.3632 0 0 1-6.1952 0.6656z m46.6944-218.8288a87.04 87.04 0 0 0-17.3056 1.8432c-15.36 3.072-27.5456 9.6768-30.1056 16.0256-7.8848 19.3536-22.2208 23.04-33.7408 26.0096a42.5984 42.5984 0 0 0-15.872 6.2464c-3.4304 2.5088-3.1232 12.9024-2.1504 38.1952l0.4608 11.264c0.9728 26.9824 12.032 73.1136 33.4848 91.2896a27.904 27.904 0 0 0 22.3744 7.2192C398.2336 499.0464 412.8256 476.16 414.72 469.7088c7.424-25.9584-14.9504-89.6-23.6544-97.792-11.3664-7.1168-26.368-29.3376-40.96-51.5584l-1.5872-2.9184a28.928 28.928 0 0 0-15.104-2.56z m57.9072 57.1904zM230.4 356.7616z" fill="#A04947" p-id="11931"></path><path d="M532.1216 689.9712s-223.5392-97.6896-117.1456-270.7456c32.8704-56.9344 121.4464-95.1296 170.7008-117.76s77.1072-47.7696 101.1712-67.84c23.3472-25.6 118.0672-42.3936 119.5008 59.0336s-7.1168 126.8736-1.4336 196.1472c6.4 78.4896-42.8544 316.5696-272.7936 201.1648z" fill="#FF8A50" p-id="11932"></path><path d="M806.3488 292.5056c-0.6656-46.7968-21.1456-68.4032-45.3632-75.6224a110.6432 110.6432 0 0 1 6.5024 38.1952c1.4336 101.4272-7.0656 126.9248-1.4336 196.1984 6.4512 78.592-42.8544 316.672-272.7936 201.3184a337.92 337.92 0 0 1-67.1232-41.6768c43.1616 51.6096 105.984 79.0528 105.984 79.0528 229.9392 115.4048 279.1936-122.88 272.7936-201.3184-5.6832-69.2736 2.8672-94.7712 1.4336-196.1472z" fill="#F96943" p-id="11933"></path><path d="M450.9184 438.272c32.8704-56.8832 121.3952-95.1296 170.6496-117.76s77.1584-47.7184 101.1712-67.84c11.264-12.3904 39.1168-22.6304 65.1264-18.5856-29.1328-33.0752-84.0192-19.2-101.0176-0.4608-24.064 20.0704-51.9168 45.056-101.1712 67.84s-137.8304 60.9792-170.7008 117.76c-106.3936 173.056 117.1456 270.7456 117.1456 270.7456l4.0448 1.9968c-57.5488-35.0208-165.7344-122.8288-85.248-253.696z" fill="#FFFFFF" p-id="11934"></path><path d="M644.1984 731.3408q-52.2752 0-116.4288-32.1024c-7.5776-3.328-116.1728-52.7872-144.896-144.4352-14.2336-45.2096-6.2976-92.6208 23.3984-140.9536 11.6224-20.1216 30.2592-39.3216 56.832-58.3168a10.24 10.24 0 0 1 11.9296 16.64c-23.808 17.0496-40.96 34.6112-51.2 52.1728-26.624 43.2128-33.792 84.9408-21.504 124.2624 26.2656 83.968 132.7616 131.5328 133.8368 131.9936h0.512c72.7552 36.5056 132.4544 39.6288 177.408 9.2672 68.7616-46.3872 84.1216-157.184 80.5888-200.6016a660.8384 660.8384 0 0 1-0.5632-95.232c1.2288-26.2144 2.56-55.9616 1.9456-101.6832-0.4608-33.9968-12.4416-56.32-34.56-64.768-25.6-9.5744-56.6784 0.9728-67.1232 12.4928a9.216 9.216 0 0 1-1.024 0.9728l-5.632 4.7104a403.456 403.456 0 0 1-97.792 64.5632l-17.92 8.2432a10.24 10.24 0 1 1-8.5504-18.5856l17.92-8.1408a382.5664 382.5664 0 0 0 93.2352-61.44l5.12-4.3008c16.8448-17.92 57.1904-29.44 89.0368-17.408 17.4592 6.656 46.9504 26.3168 47.7696 83.712 0.6656 46.08-0.7168 76.3392-1.9456 102.912a645.12 645.12 0 0 0 0.4608 92.5696c4.0448 49.1008-12.5952 167.3216-89.5488 219.2896a142.2848 142.2848 0 0 1-81.3056 24.1664z" fill="#A04947" p-id="11935"></path><path d="M513.8432 346.4704a10.24 10.24 0 0 1-5.12-19.2512c4.4032-2.4064 8.8064-4.7104 13.1072-6.9632a10.24 10.24 0 1 1 9.3696 18.2272c-4.1984 2.1504-8.448 4.4032-12.6976 6.7072a9.8816 9.8816 0 0 1-4.6592 1.28z" fill="#A04947" p-id="11936"></path><path d="M920.4224 467.5584h-819.2c-19.0976 0-14.6944 15.9744-14.6944 35.84V547.84c0 19.712-4.4032 35.84 14.6944 35.84h5.12c8.1408 68.4032 40.96 256 169.8304 332.1344a70.6048 70.6048 0 0 0 35.84 9.7792h397.824a70.2976 70.2976 0 0 0 35.84-9.7792c128.5632-76.1344 161.536-263.7824 169.6768-332.1344h5.12c19.0976 0 19.6608-15.9232 19.6608-35.84v-44.6464c-0.0512-19.6608-0.6144-35.6352-19.712-35.6352z" fill="#FF5252" p-id="11937"></path><path d="M920.4224 467.5584H855.04c19.0976 0 19.6608 15.9744 19.6608 35.84V547.84c0 19.712-0.5632 35.84-19.6608 35.84h-5.12c-8.1408 68.4032-40.96 256-169.8816 332.1344a70.2976 70.2976 0 0 1-35.84 9.7792h65.2288a70.2976 70.2976 0 0 0 35.84-9.7792c128.9728-76.1344 161.9456-263.7824 170.0864-332.1344h5.12c19.0976 0 19.6608-15.9232 19.6608-35.84v-44.6464c-0.0512-19.6608-0.6144-35.6352-19.712-35.6352z" fill="#FF3E3E" p-id="11938"></path><path d="M157.7472 583.68h-5.12c-19.1488 0-4.5056-15.9232-4.5056-35.84v-44.6464c0-19.6608-4.4032-35.84 14.7456-35.84H101.12c-19.0976 0-14.6944 15.9744-14.6944 35.84V547.84c0 19.712-4.4032 35.84 14.6944 35.84h5.12c8.1408 68.4032 40.96 256 169.8816 332.1344a70.2976 70.2976 0 0 0 35.84 9.7792H373.76a81.5104 81.5104 0 0 1-35.84-9.7792C202.0352 848.9472 165.888 652.032 157.7472 583.68z" fill="#FFFFFF" p-id="11939"></path><path d="M899.8912 679.4752a12.3904 12.3904 0 0 1-2.4064-0.256 10.24 10.24 0 0 1-7.5264-12.3904 736.3584 736.3584 0 0 0 15.36-84.3776 10.24 10.24 0 0 1 10.24-9.0624h5.12c6.5024 0 9.4208 0 9.4208-25.6v-44.5952c0-25.6-2.9184-25.6-9.4208-25.6a10.24 10.24 0 0 1 0-20.48c29.9008 0 29.9008 28.7232 29.9008 46.08V547.84c0 16.384 0 43.2128-25.9072 45.7216a744.9088 744.9088 0 0 1-14.592 77.9776 10.24 10.24 0 0 1-10.1888 7.936zM709.6832 935.7824h-397.824a80.1792 80.1792 0 0 1-40.96-11.2128c-61.9008-36.5568-109.4656-101.4272-141.4144-192.768a10.24 10.24 0 1 1 19.3024-6.7584c30.3616 86.6816 74.9056 147.8656 132.5056 181.9136a60.2112 60.2112 0 0 0 30.72 8.3456h397.824a60.2112 60.2112 0 0 0 30.72-8.3456c54.6816-32.3584 97.7408-89.344 128-169.4208a10.24 10.24 0 0 1 19.1488 7.2704c-31.8976 84.5312-77.8752 144.9984-136.704 179.7632a80.1792 80.1792 0 0 1-41.3184 11.2128zM126.464 698.0096a10.24 10.24 0 0 1-9.8816-7.5264c-1.024-3.6352-1.9456-7.2192-2.8672-10.752a10.24 10.24 0 0 1 19.8144-5.12c0.9216 3.4816 1.8432 6.9632 2.816 10.24a10.24 10.24 0 0 1-7.168 12.5952 10.24 10.24 0 0 1-2.7136 0.5632zM114.7392 648.0896a10.24 10.24 0 0 1-10.24-8.2944c-3.0208-15.36-5.5808-30.72-7.5776-46.08a22.7328 22.7328 0 0 1-14.6944-6.6048c-7.3216-7.5776-6.912-18.4832-6.5024-30.0032 0-2.9184 0.256-5.9392 0.256-9.0624v-44.8512c0-3.1232 0-6.144-0.256-9.0112-0.4096-11.52-0.8192-22.4256 6.5024-30.0544a24.9344 24.9344 0 0 1 18.688-6.8096 10.24 10.24 0 0 1 0 20.48c-3.072 0-3.9936 0.5632-3.9936 0.6144a45.568 45.568 0 0 0-0.7168 15.0016c0 3.1232 0.256 6.4 0.256 9.7792V547.84c0 3.4304 0 6.7072-0.256 9.8304a44.288 44.288 0 0 0 0.768 15.0528 9.0624 9.0624 0 0 0 3.9424 0.512h5.12a10.24 10.24 0 0 1 10.24 9.0624c2.0992 17.6128 5.12 35.584 8.448 53.4016a10.24 10.24 0 0 1-8.0384 12.032 8.8064 8.8064 0 0 1-1.9456 0.3584zM97.28 572.8768z" fill="#A04947" p-id="11940"></path><path d="M46.592 467.456m58.0608 0l812.2368 0q58.0608 0 58.0608 58.0608l0 0.0512q0 58.0608-58.0608 58.0608l-812.2368 0q-58.0608 0-58.0608-58.0608l0-0.0512q0-58.0608 58.0608-58.0608Z" fill="#FF7373" p-id="11941"></path><path d="M91.5968 550.4512a58.0608 58.0608 0 0 1 58.0608-58.0608h815.0016a58.0096 58.0096 0 0 0-47.7696-25.088H104.6528A58.0608 58.0608 0 0 0 46.592 525.5168 58.0608 58.0608 0 0 0 101.888 583.68a57.6512 57.6512 0 0 1-10.2912-33.2288z" fill="#FFFFFF" p-id="11942"></path><path d="M945.1008 474.7776a58.0608 58.0608 0 0 1 5.6832 24.9344 58.112 58.112 0 0 1-58.112 58.0608H80.4864a57.7024 57.7024 0 0 1-28.2112-7.3216A58.0608 58.0608 0 0 0 104.6528 583.68h812.2368a58.112 58.112 0 0 0 58.0608-58.112 58.0096 58.0096 0 0 0-29.8496-50.7904z" fill="#FF5C5C" p-id="11943"></path><path d="M916.8896 593.92H104.6528a68.352 68.352 0 0 1 0-136.6528H143.36a10.24 10.24 0 1 1 0 20.48h-38.7072a47.872 47.872 0 0 0 0 95.6928h812.2368a47.872 47.872 0 0 0 0-95.6928h-181.6064a10.24 10.24 0 0 1 0-20.48h181.6064a68.352 68.352 0 0 1 0 136.6528z" fill="#A04947" p-id="11944"></path><path d="M639.1296 477.696H202.0352a10.24 10.24 0 1 1 0-20.48h437.0944a10.24 10.24 0 0 1 0 20.48z" fill="#A04947" p-id="11945"></path></svg>