<svg t="1762134204981" class="icon" viewBox="0 0 1229 1024" version="1.1" xmlns="http://www.w3.org/2000/svg" p-id="5498" width="200" height="200"><path d="M136.299252 785.55611a751.082294 751.082294 0 0 0 1061.346633 0c34.473815-30.004988 5.107232-75.970075-47.880299-75.970075H184.498753c-53.306733 0-82.354115 45.965087-48.199501 75.970075z" fill="#E2E2E2" p-id="5499"></path><path d="M1151.680798 709.586035h-102.46384c51.391521 0 79.800499 45.965087 46.603491 75.970075a858.653367 858.653367 0 0 1-463.481297 214.50374c16.917706 1.915212 33.835411 3.830424 50.753117 5.107232a857.376559 857.376559 0 0 0 515.19202-219.610972c31.9202-30.004988 5.107232-75.970075-46.603491-75.970075z" fill="#C3C3C3" p-id="5500"></path><path d="M683.411471 386.234414a88.418953 88.418953 0 1 0 88.418953-88.418953 88.418953 88.418953 0 0 0-88.418953 88.418953z" fill="#F85207" p-id="5501"></path><path d="M771.830424 490.613466a105.336658 105.336658 0 1 1 105.017456-105.017456 105.336658 105.336658 0 0 1-105.017456 105.017456z m0-176.518703a71.501247 71.501247 0 1 0 71.182045 71.501247 71.501247 71.501247 0 0 0-71.182045-71.501247z" fill="#333333" p-id="5502"></path><path d="M778.852868 469.865337c0 22.024938-51.391521 35.431421-57.775561 55.541147s26.493766 61.605985 14.044888 78.523691-61.925187-1.59601-79.162095 11.172069-14.36409 65.436409-35.11222 72.139651-48.518703-37.985037-70.543641-37.985037-50.753117 44.369077-70.862842 37.985037-17.55611-59.690773-34.793018-72.139651-66.713217 6.064838-79.162095-11.172069 20.428928-58.094763 14.044888-78.523691-57.775561-33.516209-57.775561-55.541147 51.072319-35.750623 57.775561-55.541147-26.493766-61.605985-14.044888-78.523691 61.925187 1.59601 79.162095-11.17207 14.36409-65.436409 34.793018-72.139651 48.837905 37.985037 70.862842 37.985037 50.753117-44.369077 70.543641-37.985037 17.875312 59.690773 35.11222 72.139651 66.713217-6.38404 79.162095 11.17207-20.74813 58.094763-14.044888 78.523691 57.775561 33.516209 57.775561 55.541147z" fill="#97CE4B" p-id="5503"></path><path d="M617.65586 705.436409a76.608479 76.608479 0 0 1-43.411471-22.982544c-6.38404-5.426434-18.513716-15.640898-22.982544-15.640897s-16.598504 10.214464-23.301745 15.640897c-15.321696 13.087282-31.9202 27.770574-52.668329 21.386534s-25.53616-29.366584-31.9202-49.476309a86.822943 86.822943 0 0 0-8.937656-25.216958 90.014963 90.014963 0 0 0-27.132169 0c-20.428928 0-43.730673 2.872818-55.860349-14.044888s-3.511222-37.985037 3.830423-57.137157a74.374065 74.374065 0 0 0 7.660848-26.174563 88.418953 88.418953 0 0 0-20.748129-15.9601c-17.875312-10.852868-37.665835-23.620948-37.665836-45.007481s20.109726-33.835411 37.665836-45.007482a80.758105 80.758105 0 0 0 20.748129-15.640897 91.291771 91.291771 0 0 0-7.660848-26.174564c-7.660848-19.15212-16.279302-40.857855-4.149625-57.456359s35.750623-15.002494 56.179551-13.725686a80.119701 80.119701 0 0 0 27.132169 0 74.054863 74.054863 0 0 0 8.618454-24.897755c5.426434-20.109726 10.852868-42.773067 31.9202-49.157108s37.027431 8.299252 52.668329 21.067332c6.703242 5.426434 18.832918 15.640898 22.982543 15.640898s16.598504-10.214464 23.301746-15.640898c15.640898-12.76808 31.9202-27.451372 52.668329-21.067332s25.53616 29.047382 31.9202 49.157108a86.822943 86.822943 0 0 0 8.937656 25.216957 80.758105 80.758105 0 0 0 27.132169 0c20.428928 0 43.730673-2.872818 55.860349 14.044888s3.511222 37.985037-3.830424 57.137157a74.054863 74.054863 0 0 0-7.660848 26.493766 88.738155 88.738155 0 0 0 20.74813 15.640897c17.875312 11.17207 37.665835 23.620948 37.665836 45.007482s-19.790524 33.835411-37.665836 45.007481a80.438903 80.438903 0 0 0-20.74813 15.9601 95.760599 95.760599 0 0 0 7.660848 26.174563c7.660848 18.832918 16.279302 40.538653 4.149626 57.137157s-35.431421 15.321696-56.179551 14.044888a81.396509 81.396509 0 0 0-27.132169 0 95.760599 95.760599 0 0 0-8.618454 24.897756c-5.107232 20.109726-10.852868 43.092269-31.9202 49.476309a31.9202 31.9202 0 0 1-9.256858 1.276808z m-66.394015-72.458853a77.885287 77.885287 0 0 1 44.68828 23.620948 90.653367 90.653367 0 0 0 21.067331 14.683292 112.359102 112.359102 0 0 0 7.98005-25.216958 75.012469 75.012469 0 0 1 21.705736-44.049875 78.523691 78.523691 0 0 1 49.157107-7.341646 104.379052 104.379052 0 0 0 26.493766 0 95.760599 95.760599 0 0 0-7.98005-24.897756 76.289277 76.289277 0 0 1-8.299252-49.157107c4.78803-15.002494 20.109726-24.578554 34.793017-33.835412a83.630923 83.630923 0 0 0 21.705736-16.598503 91.291771 91.291771 0 0 0-21.705736-16.279302c-14.683292-9.256858-30.004988-18.832918-34.793017-33.835412a77.566085 77.566085 0 0 1 8.299252-49.476309 108.528678 108.528678 0 0 0 7.98005-24.578553 116.82793 116.82793 0 0 0-26.174564 0 74.054863 74.054863 0 0 1-49.157107-7.022444 75.012469 75.012469 0 0 1-21.705736-44.049876 16.279302 16.279302 0 1 0-29.366583-10.533665 74.374065 74.374065 0 0 1-44.68828 23.620947 75.970075 75.970075 0 0 1-44.688279-23.620947 95.760599 95.760599 0 0 0-20.74813-14.683292 100.86783 100.86783 0 0 0-8.299251 25.216957 76.927681 76.927681 0 0 1-21.705736 44.049876 75.970075 75.970075 0 0 1-49.157107 7.022444 116.189526 116.189526 0 0 0-26.174564 0 92.568579 92.568579 0 0 0 7.660848 24.578553 75.331671 75.331671 0 0 1 6.064838 47.561097c-4.78803 15.002494-20.109726 24.578554-34.793018 33.835412a98.314214 98.314214 0 0 0-21.705735 16.279302 89.695761 89.695761 0 0 0 21.705735 16.598503c14.683292 9.256858 30.004988 18.832918 34.793018 33.835412a74.374065 74.374065 0 0 1-8.299252 49.157107 105.975062 105.975062 0 0 0-7.660848 24.578554 97.67581 97.67581 0 0 0 25.855362 0 75.970075 75.970075 0 0 1 49.157107 7.022444 73.416459 73.416459 0 0 1 21.705736 44.369077 102.783042 102.783042 0 0 0 8.618453 24.897756 110.124688 110.124688 0 0 0 20.74813-14.683292 77.246883 77.246883 0 0 1 45.965087-21.705736z" fill="#333333" p-id="5504"></path><path d="M152.259352 723.311721h423.581047c18.513716-18.194514 61.286783-31.9202 61.286783-55.541147s-61.286783-42.453865-68.947631-66.074813 31.9202-73.735661 16.917706-95.760599-74.374065 1.915212-95.760599-13.087282-17.236908-78.204489-41.815461-86.184538-58.094763 45.007481-84.588529 45.007481-60.648379-52.668329-84.269326-45.007481-21.386534 71.182045-41.815462 86.184538-79.800499-7.660848-95.760598 13.087282 24.897756 69.586035 16.917706 95.760599-68.947631 39.900249-68.947631 66.074813 44.688279 37.665835 63.201995 55.541147z" fill="#97CE4B" p-id="5505"></path><path d="M536.897756 725.865337H113.316708a16.917706 16.917706 0 0 1-11.810474-4.78803 144.279302 144.279302 0 0 0-22.663341-16.279302c-20.428928-12.76808-43.730673-27.451372-43.730674-51.072319s23.301746-37.985037 43.730674-50.753117c8.937656-6.064838 24.578554-15.640898 26.174563-20.74813a83.311721 83.311721 0 0 0-9.256857-31.9202c-9.256858-23.301746-18.832918-46.922693-5.107232-65.436409s40.219451-16.917706 63.840399-15.321695a88.099751 88.099751 0 0 0 34.473815 0 82.673317 82.673317 0 0 0 11.810474-31.9202c6.064838-23.301746 12.448878-49.476309 34.793017-56.817955s40.857855 9.256858 59.690773 24.897756a82.354115 82.354115 0 0 0 30.004988 19.471321 84.588529 84.588529 0 0 0 29.685785-19.471321c19.15212-15.640898 38.623441-31.9202 60.009976-24.897756s28.72818 31.9202 34.473815 56.817955a95.760599 95.760599 0 0 0 11.810474 31.9202 88.738155 88.738155 0 0 0 34.473815 0c23.620948 0 50.433915-3.19202 63.840399 15.321695s3.830424 42.134663-5.107232 65.436409a83.311721 83.311721 0 0 0-9.256858 31.9202c0 5.107232 16.917706 15.002494 26.174564 20.74813 20.428928 12.76808 43.411471 27.13217 43.411471 50.753117s-22.982544 38.304239-43.411471 51.072319a148.74813 148.74813 0 0 0-22.982544 16.279302 16.279302 16.279302 0 0 1-11.810473 4.78803zM120.01995 692.029925h410.493766a208.438903 208.438903 0 0 1 22.982543-15.9601c8.618454-5.107232 27.770574-17.236908 27.770574-22.344139s-20.109726-17.55611-27.770574-22.34414c-16.917706-10.852868-34.793017-22.024938-40.219451-38.942643a89.695761 89.695761 0 0 1 9.895262-56.498753c4.149626-9.895262 11.491272-28.408978 9.256858-31.9202a83.311721 83.311721 0 0 0-34.473816 0 88.738155 88.738155 0 0 1-56.498753-7.98005 86.822943 86.822943 0 0 1-24.578554-51.072319c-2.553616-9.57606-7.660848-30.32419-12.448877-31.920199-5.107232 0-19.790524 12.448878-27.770574 18.832917a88.099751 88.099751 0 0 1-51.391521 27.451372 90.014963 90.014963 0 0 1-51.391521-27.451372c-7.98005-6.38404-22.663342-18.832918-27.770574-18.832917a88.099751 88.099751 0 0 0-11.810474 31.920199 87.142145 87.142145 0 0 1-24.897755 50.753117 88.418953 88.418953 0 0 1-56.498753 7.98005 88.099751 88.099751 0 0 0-34.473816 0 95.760599 95.760599 0 0 0 9.256858 31.9202 90.014963 90.014963 0 0 1 10.214464 56.498753c-5.426434 16.917706-23.301746 28.089776-40.538654 38.942643-7.341646 4.78803-27.451372 17.236908-27.451371 22.34414s19.471322 17.236908 27.451371 22.344139 15.9601 10.214464 22.982544 15.9601z" fill="#333333" p-id="5506"></path><path d="M298.453865 690.114713a36.069825 36.069825 0 0 1-12.768079 14.683292h366.763092a31.9202 31.9202 0 0 1-12.448878-14.683292c-7.022444-20.428928 26.493766-61.605985 14.044888-78.523691s-62.244389 1.59601-79.481297-11.172069-14.36409-65.436409-34.793017-72.139651-48.518703 37.985037-70.862843 37.985037-50.753117-44.369077-70.543641-37.985037-17.875312 59.690773-34.793018 72.139651-66.713217-6.38404-79.481296 11.172069 21.067332 58.094763 14.364089 78.523691z" fill="#97CE4B" p-id="5507"></path><path d="M652.448878 721.715711H285.685786a16.917706 16.917706 0 0 1-15.9601-11.810474 16.598504 16.598504 0 0 1 5.745636-18.513716 24.897756 24.897756 0 0 0 7.022444-6.703242 91.291771 91.291771 0 0 0-7.660848-26.174563c-7.660848-19.15212-16.279302-40.538653-4.149626-57.137157s35.431421-15.321696 56.179551-14.044888a81.396509 81.396509 0 0 0 27.132169 0 95.760599 95.760599 0 0 0 8.618454-25.216958c5.107232-19.790524 10.852868-42.773067 31.9202-49.157107s37.027431 8.299252 52.668329 21.386534a86.184539 86.184539 0 0 0 22.982544 15.640897 82.034913 82.034913 0 0 0 23.301745-15.640897c15.640898-13.087282 31.9202-27.770574 52.668329-21.386534s25.53616 29.366584 31.9202 49.157107a80.119701 80.119701 0 0 0 8.937656 25.216958 88.099751 88.099751 0 0 0 27.132169 0c20.428928 0 43.730673-2.872818 55.86035 13.725686s3.511222 38.304239-3.830424 57.456359a74.374065 74.374065 0 0 0-7.660848 26.174563s0 2.234414 6.703242 6.38404a16.917706 16.917706 0 0 1 6.064838 18.832918 18.513716 18.513716 0 0 1-16.598504 11.491272zM316.009975 687.880299h306.114713a91.291771 91.291771 0 0 1 10.214464-41.496259 112.678304 112.678304 0 0 0 7.660848-24.897756 115.870324 115.870324 0 0 0-26.174564 0 52.987531 52.987531 0 0 1-70.862842-51.072319 100.86783 100.86783 0 0 0-8.618454-25.216958 91.930175 91.930175 0 0 0-20.428928 14.683292 54.264339 54.264339 0 0 1-89.695761 0 95.760599 95.760599 0 0 0-20.748129-14.683292 100.86783 100.86783 0 0 0-8.299252 25.216958 52.987531 52.987531 0 0 1-70.862843 51.072319 116.189526 116.189526 0 0 0-26.174564 0 100.229426 100.229426 0 0 0 7.98005 24.897756 95.760599 95.760599 0 0 1 9.895262 41.496259z" fill="#333333" p-id="5508"></path><path d="M700.329177 653.087282c2.234414 15.321696-13.406484 36.389027-24.259352 55.860349h442.413966c22.024938-14.683292 66.074813-22.982544 69.586034-44.688279s-54.264339-52.349127-58.094763-77.566085 43.730673-68.628429 31.9202-91.610973-74.374065-9.895262-92.568579-28.408977-4.468828-80.758105-27.770573-92.887781-63.840399 35.750623-91.610973 31.9202-52.029925-63.840399-76.927681-59.052369-31.9202 67.670823-55.860349 79.481296-78.523691-20.74813-95.760598-2.553616 13.725686 73.735661 0 95.760599-75.650873 28.72818-79.800499 55.221945 54.583541 52.668329 58.413965 77.566085z" fill="#97CE4B" p-id="5509"></path><path d="M1169.55611 609.67581c-8.299252-7.341646-22.024938-19.471322-22.982544-24.897755a84.588529 84.588529 0 0 1 14.683292-31.9202c13.087282-21.386534 26.174564-43.730673 15.640898-63.840399s-37.346633-23.301746-61.286783-25.536159a85.546135 85.546135 0 0 1-34.473816-7.341646 81.396509 81.396509 0 0 1-6.38404-33.835412c-2.234414-23.94015-4.468828-51.391521-25.216957-61.925187s-42.453865 2.553616-63.840399 15.002494a84.588529 84.588529 0 0 1-31.9202 14.683292c-6.38404 0-18.513716-15.002494-26.812967-24.578554-16.279302-18.513716-31.9202-37.985037-55.221946-34.473815s-34.154613 28.72818-43.730673 51.072319a90.334165 90.334165 0 0 1-17.236908 30.004988 95.760599 95.760599 0 0 1-34.793017-4.149626c-23.301746-5.426434-49.795511-11.491272-66.394015 4.78803s-10.533666 41.496259-5.426434 65.755611a89.376559 89.376559 0 0 1 3.830424 35.431421 91.291771 91.291771 0 0 1-30.004988 16.279302c-22.34414 9.57606-47.561097 20.428928-51.391521 43.730673s16.598504 41.815461 35.11222 57.775561c8.299252 7.341646 22.024938 19.471322 22.982543 24.897756a89.695761 89.695761 0 0 1-14.683291 31.920199c-2.872818 4.149626-5.107232 8.618454-7.660848 12.76808a16.917706 16.917706 0 0 0 0 16.917706 16.279302 16.279302 0 0 0 14.364089 8.299252h143.321696a16.598504 16.598504 0 0 0 16.598504-17.236908 16.598504 16.598504 0 0 0-16.598504-16.279302h-88.09975a16.598504 16.598504 0 0 1-15.9601-21.705735 43.411471 43.411471 0 0 0 1.915212-20.109726 87.780549 87.780549 0 0 0-33.835412-45.007481c-7.660848-6.703242-24.897756-22.024938-24.259351-27.13217s22.34414-14.044888 31.920199-18.194514a88.738155 88.738155 0 0 0 46.603491-31.920199 90.653367 90.653367 0 0 0 0-58.094763c0-3.830424-1.915212-8.937656-2.872817-14.044888a16.598504 16.598504 0 0 1 19.471321-19.471322l14.683292 3.19202a60.967581 60.967581 0 0 0 90.334165-45.645885c1.59601-3.511222 3.830424-8.618454 6.384039-13.725686a16.598504 16.598504 0 0 1 27.13217-4.149626l9.256858 10.533666a92.887781 92.887781 0 0 0 46.603491 35.750623 90.972569 90.972569 0 0 0 55.860349-19.152119l12.129676-6.703242a16.279302 16.279302 0 0 1 24.259352 12.448878v15.321695a88.099751 88.099751 0 0 0 16.279301 54.583542 89.057357 89.057357 0 0 0 55.221946 17.236907h14.683291a16.598504 16.598504 0 0 1 12.448878 24.578554l-7.341646 12.448878a89.057357 89.057357 0 0 0-19.152119 54.902743 86.184539 86.184539 0 0 0 34.154613 45.326683c7.341646 6.38404 24.897756 22.024938 23.94015 27.13217s-22.024938 14.044888-31.9202 17.875311a245.785536 245.785536 0 0 0-22.663341 10.533666 15.9601 15.9601 0 0 1-7.660848 1.915212h-8.937656a16.917706 16.917706 0 0 0-16.917706 16.917706 16.598504 16.598504 0 0 0 16.917706 16.598504h13.087282a34.473815 34.473815 0 0 0 16.917705-4.468828c6.064838-3.511222 14.36409-7.022444 22.34414-10.533666 22.34414-9.57606 47.880299-20.109726 51.710723-43.730673s-16.917706-41.177057-35.112219-56.817956z" fill="#333333" p-id="5510"></path><path d="M364.528678 709.266833a89.695761 89.695761 0 0 0 9.256858-38.942643 88.418953 88.418953 0 1 0-176.518703 0 89.376559 89.376559 0 0 0 8.937656 38.942643z" fill="#F85207" p-id="5511"></path><path d="M364.528678 725.865337h-159.600997a16.598504 16.598504 0 0 1-15.002494-9.256858A102.783042 102.783042 0 0 1 179.072319 670.32419a105.336658 105.336658 0 1 1 210.673317 0 106.932668 106.932668 0 0 1-10.852868 46.284289 17.55611 17.55611 0 0 1-14.36409 9.256858z m-146.832917-33.835412h135.660847a63.840399 63.840399 0 0 0 3.511222-22.024937 71.501247 71.501247 0 0 0-142.683291 0 63.840399 63.840399 0 0 0 3.511222 22.024937z" fill="#333333" p-id="5512"></path><path d="M843.970075 600.418953a104.05985 104.05985 0 0 1 104.379052 104.379052h63.840399a168.857855 168.857855 0 0 0-337.715711 0h63.840399a104.379052 104.379052 0 0 1 104.379053-104.379052z" fill="#9E8FFF" p-id="5513"></path><path d="M1012.82793 721.715711h-63.840399a16.917706 16.917706 0 0 1-16.917706-16.917706 87.780549 87.780549 0 0 0-175.241895 0 16.917706 16.917706 0 0 1-16.917706 16.917706h-63.840399a16.917706 16.917706 0 0 1-16.917705-16.917706 186.094763 186.094763 0 0 1 371.870324 0 17.55611 17.55611 0 0 1-18.194514 16.917706z m-48.518703-33.835412h31.920199a151.94015 151.94015 0 0 0-301.965087 0h31.9202a121.61596 121.61596 0 0 1 240.678304 0z" fill="#333333" p-id="5514"></path><path d="M785.55611 705.436409l-243.870324-243.870324a181.625935 181.625935 0 0 0-11.491272 243.870324z" fill="#FFDE50" p-id="5515"></path><path d="M785.55611 726.184539h-255.361596a16.917706 16.917706 0 0 1-13.087282-6.064838 197.266833 197.266833 0 0 1 12.448878-266.533666 17.236908 17.236908 0 0 1 23.940149 0l243.870325 243.870324a16.279302 16.279302 0 0 1 3.511221 18.194514 16.598504 16.598504 0 0 1-15.321695 10.533666z m-247.062344-31.9202h206.842892l-202.374064-202.693267a163.112219 163.112219 0 0 0-4.468828 201.097257z m536.578553-155.132169h-12.448878a7.341646 7.341646 0 0 1-7.660847-7.660848v-12.448878a9.895262 9.895262 0 0 0-6.38404-9.256858 9.256858 9.256858 0 0 0-12.129676 8.937656v12.76808a7.660848 7.660848 0 0 1-7.660848 7.660848h-12.448878a9.57606 9.57606 0 0 0-9.256858 6.064837 9.256858 9.256858 0 0 0 8.618454 12.448878h13.087282a7.660848 7.660848 0 0 1 7.660848 7.660848v12.448878a9.57606 9.57606 0 0 0 6.064838 9.256858 9.57606 9.57606 0 0 0 12.448878-8.937656v-12.76808a7.660848 7.660848 0 0 1 7.660847-7.660848h12.76808a9.57606 9.57606 0 0 0 8.937656-12.448878 9.895262 9.895262 0 0 0-9.256858-7.660847z m-141.406484-85.865337h-12.448877a7.660848 7.660848 0 0 1-7.660848-7.660848v-12.448878a9.895262 9.895262 0 0 0-6.38404-9.256858 9.256858 9.256858 0 0 0-12.129676 8.937656v12.76808a7.660848 7.660848 0 0 1-7.660848 7.660848h-12.448878a9.57606 9.57606 0 0 0-9.256858 6.064838 9.57606 9.57606 0 0 0 8.937656 12.448878h12.76808a7.660848 7.660848 0 0 1 7.660848 7.660848v12.448877a9.57606 9.57606 0 0 0 6.064838 9.256858 9.57606 9.57606 0 0 0 12.448878-8.937656v-12.768079a7.341646 7.341646 0 0 1 7.660848-7.660848h12.768079a9.57606 9.57606 0 0 0 8.937656-12.448878 9.57606 9.57606 0 0 0-9.256858-7.660848z" fill="#333333" p-id="5516"></path><path d="M196.628429 896.957606a16.598504 16.598504 0 0 0-5.426434-23.94015 861.845387 861.845387 0 0 1-134.703242-99.27182 21.067332 21.067332 0 0 1-7.341646-23.94015 43.411471 43.411471 0 0 1 42.453866-22.982543h727.780548a16.598504 16.598504 0 0 0 16.598504-16.917706 16.598504 16.598504 0 0 0-16.598504-16.598504H91.610973A77.246883 77.246883 0 0 0 17.55611 737.356608a54.264339 54.264339 0 0 0 16.279301 61.286784 846.523691 846.523691 0 0 0 140.448878 103.421446 16.279302 16.279302 0 0 0 22.024938-5.107232z m1029.107232-159.600998a77.246883 77.246883 0 0 0-74.054863-44.369077h-51.072319a16.917706 16.917706 0 0 0 0 31.9202h51.072319a43.730673 43.730673 0 0 1 42.773067 22.982543 20.74813 20.74813 0 0 1-7.660848 23.94015 843.331671 843.331671 0 0 1-937.177057 130.872818 16.279302 16.279302 0 0 0-21.067332 5.426434 16.279302 16.279302 0 0 0 6.064838 24.259351 876.209476 876.209476 0 0 0 975.162095-135.980049 53.945137 53.945137 0 0 0 15.9601-60.967581z" fill="#333333" p-id="5517"></path><path d="M1050.174564 709.586035a16.917706 16.917706 0 0 0-16.598504-16.598504h-147.15212a16.598504 16.598504 0 0 0-16.598504 17.236908 16.598504 16.598504 0 0 0 16.598504 16.279302h146.194514a16.598504 16.598504 0 0 0 16.598504-16.598504zM681.496259 816.837905a22.34414 22.34414 0 1 0 22.34414-22.024937 22.34414 22.34414 0 0 0-22.34414 22.024937zM493.167082 816.837905a22.024938 22.024938 0 1 0 22.024938-22.024937 22.024938 22.024938 0 0 0-22.024938 22.024937zM609.037406 915.471322a46.922693 46.922693 0 0 1-46.922693-46.922694 12.129676 12.129676 0 0 1 12.448878-10.852867 11.491272 11.491272 0 0 1 11.17207 11.810473 23.301746 23.301746 0 0 0 46.284289 0 12.129676 12.129676 0 0 1 23.94015 0 47.561097 47.561097 0 0 1-46.922694 46.922694z" fill="#333333" p-id="5518"></path><path d="M710.224439 874.294264a28.408978 28.408978 0 0 0 56.817955 0 28.408978 28.408978 0 0 0-56.817955 0zM453.905237 877.167082a28.408978 28.408978 0 1 0 56.817955 0 28.408978 28.408978 0 1 0-56.817955 0z" fill="#F85207" p-id="5519"></path><path d="M332.927681 850.034913l1.915212 2.553616a16.917706 16.917706 0 0 1-21.386534 24.259351 282.812968 282.812968 0 0 1-89.69576-61.286783 16.949626 16.949626 0 1 1 25.216957-22.663341 251.531172 251.531172 0 0 0 78.204489 52.987531 19.790524 19.790524 0 0 1 5.745636 4.149626zM362.294264 900.78803a16.598504 16.598504 0 0 0 23.620948-1.915212 16.917706 16.917706 0 1 0-23.620948 1.915212z" fill="#FFFFFF" p-id="5520"></path><path d="M1182.32419 200.458853h-12.448878a7.660848 7.660848 0 0 1-7.660848-7.660848v-12.448878a9.57606 9.57606 0 0 0-6.064838-9.256858 9.256858 9.256858 0 0 0-12.448878 8.618454v13.087282a7.341646 7.341646 0 0 1-7.341646 7.660848h-12.448878a9.57606 9.57606 0 0 0-9.256857 6.064838 8.937656 8.937656 0 0 0 8.618453 12.129676h13.087282a7.341646 7.341646 0 0 1 7.341646 7.660847v12.448878a9.57606 9.57606 0 0 0 6.38404 9.256858 8.937656 8.937656 0 0 0 12.129676-8.618454v-12.76808a7.660848 7.660848 0 0 1 7.660848-7.660847h13.087282a8.937656 8.937656 0 0 0 8.618453-12.129676 9.57606 9.57606 0 0 0-9.256857-6.38404zM1176.259352 371.551122a11.17207 11.17207 0 1 0 22.024937 0 11.17207 11.17207 0 1 0-22.024937 0zM1099.331671 86.503741a7.98005 7.98005 0 0 0 15.640898 0 7.98005 7.98005 0 0 0-15.640898 0zM1003.890274 16.917706a16.917706 16.917706 0 1 0 16.917706-16.917706 16.917706 16.917706 0 0 0-16.917706 16.917706zM950.583541 162.793017a13.087282 13.087282 0 1 0 25.855362 0 13.087282 13.087282 0 1 0-25.855362 0zM828.329177 88.738155a2.872818 2.872818 0 0 1 2.872818-2.872818h18.832918a2.872818 2.872818 0 0 1 2.872818 2.872818 2.872818 2.872818 0 0 1-2.872818 2.872818h-18.832918a2.872818 2.872818 0 0 1-2.872818-2.872818z m-3.511222-10.533666a2.872818 2.872818 0 0 1 0-3.830424l13.406484-13.406484a2.872818 2.872818 0 0 1 3.830424 0 2.872818 2.872818 0 0 1 0 3.830424l-13.406484 13.406484a2.234414 2.234414 0 0 1-3.830424 0z m-10.214464-4.78803a2.872818 2.872818 0 0 1-2.553616-2.872818v-18.832918a2.872818 2.872818 0 0 1 2.553616-2.872818 2.872818 2.872818 0 0 1 2.872818 2.872818v18.832918a2.872818 2.872818 0 0 1-2.872818 2.872818z m-10.533666 3.830424a2.234414 2.234414 0 0 1-3.830424 0l-13.087281-13.087282a2.234414 2.234414 0 0 1 0-3.830424 2.872818 2.872818 0 0 1 3.830424 0l13.406483 13.406484a2.872818 2.872818 0 0 1-0.319202 3.511222z m-5.107231 9.895262a2.553616 2.553616 0 0 1-2.553616 2.872818h-19.15212a2.872818 2.872818 0 0 1-2.553616-2.872818 2.553616 2.553616 0 0 1 2.553616-2.553616h19.15212a2.553616 2.553616 0 0 1 2.553616 2.553616z m3.830423 10.533665a2.872818 2.872818 0 0 1 0 3.830424l-13.406483 13.406484a2.553616 2.553616 0 0 1-3.511222 0 2.234414 2.234414 0 0 1 0-3.830424l13.087282-13.406484a2.872818 2.872818 0 0 1 3.830423 1.276808z m10.214464 5.107232a2.872818 2.872818 0 0 1 2.872818 2.553616v19.15212a2.872818 2.872818 0 0 1-2.872818 2.553616 2.872818 2.872818 0 0 1-2.872818-2.553616v-19.15212a3.19202 3.19202 0 0 1 2.872818-2.553616z m10.533666-3.830424a2.872818 2.872818 0 0 1 3.830424 0l13.406484 13.406484a2.872818 2.872818 0 0 1 0 3.830424 2.234414 2.234414 0 0 1-3.830424 0l-13.087282-13.406484a2.553616 2.553616 0 0 1 0-3.830424zM207.481297 229.187032h12.448878a7.341646 7.341646 0 0 0 7.660847-7.341645v-12.448878a9.57606 9.57606 0 0 1 6.064838-9.256858 9.256858 9.256858 0 0 1 12.448878 8.618454v13.087282a7.341646 7.341646 0 0 0 7.660848 7.341645h12.76808a10.214464 10.214464 0 0 1 9.256858 6.38404 9.256858 9.256858 0 0 1-8.937656 12.129676h-12.76808a7.660848 7.660848 0 0 0-7.660848 7.660848v12.448878a9.57606 9.57606 0 0 1-6.38404 9.256858 9.256858 9.256858 0 0 1-12.129676-8.618454V255.361596a7.660848 7.660848 0 0 0-7.660847-7.660848h-13.087282a9.256858 9.256858 0 0 1-8.618454-12.129676 9.57606 9.57606 0 0 1 8.937656-6.38404zM165.665835 121.61596a11.17207 11.17207 0 0 0 11.17207 11.17207 11.17207 11.17207 0 0 0 11.17207-11.17207 11.17207 11.17207 0 0 0-11.17207-11.17207 11.17207 11.17207 0 0 0-11.17207 11.17207zM301.645885 69.266833a7.98005 7.98005 0 0 0 15.9601 0 7.98005 7.98005 0 0 0-15.9601 0zM93.526185 304.199501a13.087282 13.087282 0 0 0 13.087281 13.087282 13.087282 13.087282 0 0 0 13.087282-13.087282 13.087282 13.087282 0 0 0-12.76808-13.725686 13.406484 13.406484 0 0 0-13.406483 13.725686zM76.927681 186.733167a16.917706 16.917706 0 1 0 16.598504-16.917706 16.598504 16.598504 0 0 0-16.598504 16.917706zM627.551122 130.872818h-12.448878a7.660848 7.660848 0 0 1-7.660847-7.660848v-12.448878a9.57606 9.57606 0 0 0-6.064838-9.256858 9.57606 9.57606 0 0 0-12.448878 8.937656v12.76808a7.660848 7.660848 0 0 1-7.660848 7.660848h-12.448878a9.57606 9.57606 0 0 0-9.256858 6.064838 9.57606 9.57606 0 0 0 8.937656 12.448878h12.76808a7.341646 7.341646 0 0 1 7.660848 7.660848v12.448877a10.214464 10.214464 0 0 0 6.064838 9.256858 9.57606 9.57606 0 0 0 12.448878-8.937656v-12.768079a7.660848 7.660848 0 0 1 7.660847-7.660848h12.76808a9.57606 9.57606 0 0 0 8.937656-12.448878 9.57606 9.57606 0 0 0-9.256858-6.064838zM460.927681 23.301746a13.087282 13.087282 0 0 0 26.174563 0 13.087282 13.087282 0 0 0-26.174563 0zM0 376.339152a16.917706 16.917706 0 1 0 16.917706-16.917706 16.917706 16.917706 0 0 0-16.917706 16.917706z" fill="#333333" p-id="5521"></path></svg>