<svg t="1762827529331" class="icon" viewBox="0 0 1024 1024" version="1.1" xmlns="http://www.w3.org/2000/svg" p-id="5893" width="200" height="200"><path d="M512 512m-512 0a512 512 0 1 0 1024 0 512 512 0 1 0-1024 0Z" fill="#FFFFFF" p-id="5894"></path><path d="M333.913043 356.173913h356.173914a22.26087 22.26087 0 1 1 0 44.521739H333.913043a22.26087 22.26087 0 0 1 0-44.521739z m340.613566 327.568696l-166.333218-162.504348-158.363826 162.148174a22.26087 22.26087 0 0 1-31.833043-31.120696l173.901913-178.086956a22.26087 22.26087 0 0 1 31.476869-0.356174l182.272 178.086956a22.26087 22.26087 0 0 1-31.120695 31.833044z" fill="#0372F9" p-id="5895"></path></svg>