<svg t="1765104209217" class="icon" viewBox="0 0 1024 1024" version="1.1" xmlns="http://www.w3.org/2000/svg" p-id="10151" width="200" height="200"><path d="M514.3625 95.75C285.7625 93.1625 98.3375 277.4375 95.80625 507.33125s180.675 418.275 409.275 420.8625h9.28125c228.6 0 413.94375-186.3 413.94375-416.19375C928.25 282.10625 742.90625 95.75 514.3625 95.75zM310.34375 242.45h405.45c14.2875 0 23.79375 9.5625 23.79375 23.79375 0 14.34375-9.50625 23.90625-23.79375 23.90625H310.34375c-14.23125 0-23.68125-9.50625-23.68125-23.90625 0-14.23125 9.45-23.79375 23.68125-23.79375z m431.6625 491.4a46.29375 46.29375 0 0 1-47.475 47.64375h-362.8125a47.8125 47.8125 0 0 1-47.475-47.64375V583.49375a21.31875 21.31875 0 0 1 21.15-21.375h0.225c11.86875 0 21.375 9.5625 21.375 21.43125v150.35625c0 2.30625 2.30625 4.725 4.725 4.725h362.86875c2.30625 0 4.725-2.41875 4.725-4.725V583.49375a21.375 21.375 0 1 1 42.69375 0v150.35625z m-14.23125-212.34375c-40.3875 0-71.15625-30.99375-71.15625-69.13125 0 38.1375-33.3 69.13125-71.15625 69.13125-40.3875 0-71.15625-30.99375-71.15625-69.13125 0 38.1375-30.88125 69.13125-71.15625 69.13125s-71.1-30.9375-71.1-69.13125c0 38.1375-33.24375 69.13125-71.15625 69.13125-40.33125 0-71.15625-30.9375-71.15625-69.13125l49.78125-128.86875h469.575l49.8375 128.86875c0 38.19375-33.24375 69.13125-71.15625 69.13125z" fill="#FF703E" p-id="10152"></path><path d="M512 129.55625c210.9375 0 382.44375 171.5625 382.44375 382.5S722.9375 894.5 512 894.5s-382.5-171.5625-382.5-382.44375 171.61875-382.5 382.5-382.5M512 62a450 450 0 1 0 0 900A450 450 0 0 0 512 62z" fill="#42A5FF" p-id="10153"></path></svg>